<svg width="20" height="22" viewBox="0 0 20 22" xmlns="http://www.w3.org/2000/svg" xmlns:xlink="http://www.w3.org/1999/xlink"><title>icon_lock</title><desc>Created using Figma</desc><use xlink:href="#a" transform="translate(1 10)" fill="#00B0CA"/><use xlink:href="#b" transform="translate(5 1)" fill="#00B0CA"/><defs><path id="a" d="M2 1h14v-2H2v2zm14 0a1 1 0 0 1 1 1h2a3 3 0 0 0-3-3v2zm1 1v7h2V2h-2zm0 7a1 1 0 0 1-1 1v2a3 3 0 0 0 3-3h-2zm-1 1H2v2h14v-2zM2 10a1 1 0 0 1-1-1h-2a3 3 0 0 0 3 3v-2zM1 9V2h-2v7h2zm0-7a1 1 0 0 1 1-1v-2a3 3 0 0 0-3 3h2z"/><path id="b" d="M-1 9a1 1 0 1 0 2 0h-2zm1-4h-1 1zm5-5v-1 1zm4 9a1 1 0 1 0 2 0H9zM1 9V5h-2v4h2zm0-4a4 4 0 0 1 1.172-2.828L.757.757A6 6 0 0 0-1 5h2zm1.172-2.828A4 4 0 0 1 5 1v-2A6 6 0 0 0 .757.757l1.415 1.415zM5 1a4 4 0 0 1 2.828 1.172L9.243.757A6 6 0 0 0 5-1v2zm2.828 1.172A4 4 0 0 1 9 5h2A6 6 0 0 0 9.243.757L7.828 2.172zM9 5v4h2V5H9z"/></defs></svg>