<svg width="60" height="64" viewBox="0 0 60 64" xmlns="http://www.w3.org/2000/svg" xmlns:xlink="http://www.w3.org/1999/xlink"><title>g14</title><desc>Created using Figma</desc><use xlink:href="#a" transform="matrix(1.25 0 0 -1.25 31.126 64)" fill="#B2E7EF"/><use xlink:href="#b" transform="matrix(1.25 0 0 -1.25 0 64)" fill="#B2E7EF"/><use xlink:href="#c" transform="matrix(1.25 0 0 -1.25 28.217 59.64)" fill="#B2E7EF"/><use xlink:href="#c" transform="matrix(1.25 0 0 -1.25 28.217 3.19)" fill="#B2E7EF"/><defs><path id="a" d="M8.593 0c-.178 0-.357.038-.523.118l-6.175 2.92a1.19 1.19 0 0 0-.57 1.595c.288.595 1.01.849 1.616.563l4.441-2.1v1.32C.736 10.35.736 10.967.736 11.513v7.035c0 .394.196.762.523.985.329.223.748.274 1.118.133l18.3-6.883v2.394L2.38 30.29a1.191 1.191 0 0 0-.434.918V41.55a6.739 6.739 0 0 1-1.655 4.416 1.185 1.185 0 0 0 .13 1.686c.508.43 1.275.374 1.708-.128a9.114 9.114 0 0 0 2.24-5.974v-9.782l18.295-15.115a1.19 1.19 0 0 0 .434-.919v-4.689c0-.393-.197-.76-.524-.984a1.225 1.225 0 0 0-1.118-.133L3.159 16.812V11.81c.668-.856 3.655-3.67 6.245-5.973.255-.227.4-.55.4-.889V1.196c0-.411-.214-.793-.565-1.012A1.222 1.222 0 0 0 8.593 0z"/><path id="b" d="M14.505 0c-.226 0-.448.062-.646.183a1.193 1.193 0 0 0-.566 1.013v3.752c0 .339.146.662.401.89 2.589 2.301 5.576 5.116 6.246 5.972v5.002L1.644 9.927a1.22 1.22 0 0 0-1.12.133 1.19 1.19 0 0 0-.524.984v4.69c0 .354.159.69.435.918l18.292 15.115v9.783c0 2.19.796 4.312 2.242 5.974a1.224 1.224 0 0 0 1.708.128c.508-.43.566-1.186.13-1.687a6.724 6.724 0 0 1-1.657-4.415V31.21c0-.355-.159-.69-.434-.918L2.423 15.174V12.78l18.297 6.886c.372.14.79.09 1.118-.133.328-.224.524-.591.524-.985v-7.035c0-.546 0-1.163-6.646-7.097V3.102l4.143 1.974a1.22 1.22 0 0 0 1.616-.558 1.19 1.19 0 0 0-.564-1.598L15.031.118A1.225 1.225 0 0 0 14.504 0z"/><path id="c" d="M2.584 1.274C2.584.571 2.006 0 1.294 0 .579 0 0 .57 0 1.274 0 1.978.579 2.55 1.294 2.55c.712 0 1.29-.572 1.29-1.276z"/></defs></svg>