<?xml version="1.0" standalone="no"?>
<!DOCTYPE svg PUBLIC "-//W3C//DTD SVG 1.1//EN" "http://www.w3.org/Graphics/SVG/1.1/DTD/svg11.dtd" >
<svg xmlns="http://www.w3.org/2000/svg">
<metadata>Generated by IcoMoon</metadata>
<defs>
<font id="Ayre" horiz-adv-x="1024">
<font-face units-per-em="1024" ascent="960" descent="-64" />
<missing-glyph horiz-adv-x="1024" />
<glyph unicode="&#x20;" horiz-adv-x="512" d="" />
<glyph unicode="&#xe900;" glyph-name="circle-check" d="M446.171 289.515c-0.68 0-1.387 0.027-2.067 0.082-7.481 0.571-14.363 4.189-19.069 10.011l-141.617 174.754c-9.467 11.67-7.671 28.808 3.999 38.248 11.724 9.521 28.835 7.644 38.274-3.999l123.5-152.42 273.088 247.522c11.125 10.093 28.344 9.277 38.437-1.904 10.12-11.125 9.248-28.317-1.877-38.411l-294.387-266.81c-5.033-4.57-11.561-7.073-18.28-7.073zM511.99-64c-282.309 0-511.981 229.677-511.981 511.992 0 126.088 46.217 247.224 130.192 341.131 10.011 11.181 27.23 12.16 38.383 2.149 11.207-10.011 12.159-27.232 2.149-38.411-75.025-83.923-116.318-192.192-116.318-304.869 0-252.309 205.271-457.585 457.576-457.585 48.229 0 95.725 7.454 141.099 22.143 14.365 4.625 29.624-3.183 34.248-17.465 4.627-14.309-3.181-29.652-17.464-34.276-50.813-16.458-103.968-24.809-157.883-24.809zM874.241 98.581c-6.448 0-12.923 2.285-18.091 6.882-11.208 9.984-12.213 27.203-2.229 38.411 74.589 83.813 115.664 191.838 115.664 304.16 0 252.283-205.269 457.56-457.574 457.56-60.526 0-119.284-11.616-174.668-34.493-13.846-5.685-29.787 0.843-35.527 14.744s0.843 29.813 14.744 35.555c61.995 25.597 127.744 38.6 195.451 38.6 282.308 0 511.98-229.651 511.98-511.965 0-125.679-45.971-246.543-129.429-340.313-5.357-6.066-12.84-9.14-20.32-9.14zM257.712 849.415c0-15.995-13.030-28.999-28.998-28.999-16.022 0-29.025 13.003-29.025 28.999s13.003 28.999 29.025 28.999c15.968 0 28.998-13.003 28.998-28.999zM814.086 58.908c0-15.995-13.003-28.999-28.998-28.999-16.022 0-29.025 13.003-29.025 28.999s13.003 28.999 29.025 28.999c15.995 0 28.998-13.003 28.998-28.999z" />
<glyph unicode="&#xe901;" glyph-name="arrow-down" horiz-adv-x="1792" d="M1668.558 906.841c26.717 26.717 70.032 26.717 96.748 0s26.717-70.032 0-96.748l-96.748 96.748zM895.999 37.533l48.373-48.373c-26.716-26.718-70.032-26.718-96.747 0l48.373 48.373zM26.685 810.093c-26.708 26.717-26.708 70.032 0 96.748 26.721 26.717 70.039 26.717 96.761 0l-96.761-96.748zM1765.306 810.093l-820.933-820.933-96.747 96.747 820.933 820.933 96.748-96.748zM847.626-10.84l-820.94 820.933 96.761 96.748 820.927-820.933-96.747-96.747z" />
<glyph unicode="&#xe902;" glyph-name="arrow-top-right" d="M15.266 6.552c-15.266-15.269-15.266-40.022 0-55.291 15.266-15.261 40.017-15.261 55.283 0l-55.283 55.291zM1008.739 889.451c15.261 15.266 15.261 40.017 0 55.283-15.269 15.266-40.022 15.266-55.291 0l55.291-55.283zM70.55-48.738l938.19 938.19-55.291 55.283-938.183-938.183 55.283-55.291zM277.454 956.185c-21.59 0-39.091-17.502-39.091-39.091s17.502-39.091 39.091-39.091v78.182zM981.094 917.093h39.091c0 21.59-17.502 39.091-39.091 39.091v-39.091zM942.003 213.453c0-21.59 17.502-39.091 39.091-39.091s39.091 17.502 39.091 39.091h-78.182zM277.454 878.002h703.64v78.182h-703.64v-78.182zM942.003 917.093v-703.64h78.182v703.64h-78.182z" />
<glyph unicode="&#xe903;" glyph-name="badge" horiz-adv-x="896" d="M273.932 843.685c0-13.517-11.023-24.505-24.531-24.505-13.554 0-24.554 10.988-24.554 24.505s11 24.505 24.554 24.505c13.508 0 24.531-10.988 24.531-24.505zM452.645 371.657c-161.776 0-293.405 131.49-293.405 293.095 0 43.101 9.182 84.687 27.292 123.605 5.362 11.517 19.008 16.551 30.583 11.15 11.506-5.333 16.499-19.011 11.161-30.529-15.281-32.803-23.012-67.881-23.012-104.226 0-136.272 110.965-247.118 247.381-247.118s247.38 110.847 247.38 247.118c0 136.272-110.965 247.117-247.38 247.117-40.433 0-80.519-9.953-115.89-28.733-11.253-5.954-25.175-1.703-31.136 9.493-5.96 11.194-1.703 25.126 9.504 31.103 42.043 22.298 89.586 34.114 137.521 34.114 161.775 0 293.405-131.491 293.405-293.095s-131.63-293.095-293.405-293.095zM309.972-61.846h-0.323c-8.997 0.115-17.121 5.472-20.733 13.747l-76.172 173.006-178.229-81.606c-8.767-4.046-19.123-2.138-25.912 4.69-6.812 6.828-8.606 17.171-4.534 25.907l202.253 434.17c5.363 11.495 18.963 16.529 30.561 11.126 11.529-5.333 16.523-19.034 11.16-30.527l-175.882-377.552 142.652 65.331c5.616 2.575 12.036 2.782 17.79 0.597 5.753-2.207 10.401-6.62 12.863-12.252l65.241-148.203 121.135 256.497c5.409 11.471 19.146 16.392 30.629 10.989s16.408-19.126 10.977-30.597l-142.675-302.152c-3.798-8.046-11.897-13.172-20.803-13.172zM586.054-61.846h-0.046c-9.113 0-17.396 5.425-21.056 13.816l-188.999 433.412c-5.085 11.63 0.276 25.194 11.92 30.25 11.69 5.126 25.198-0.253 30.284-11.885l167.989-385.275 64.388 146.318c2.461 5.632 7.11 10.045 12.863 12.252 5.775 2.185 12.174 1.978 17.788-0.597l143.505-65.722-49.731 109.515c-5.246 11.562-0.114 25.194 11.461 30.458 11.598 5.265 25.198 0.116 30.467-11.447l75.158-165.558c3.959-8.713 2.071-19.011-4.718-25.793-6.857-6.781-17.121-8.597-25.841-4.597l-178.231 81.606-76.146-173.006c-3.66-8.367-11.945-13.747-21.058-13.747zM732.849 338.041c-8.676 0-16.983 4.919-20.872 13.287l-63.997 137.398c-5.385 11.494-0.391 25.171 11.138 30.528 11.598 5.379 25.221 0.345 30.56-11.149l63.997-137.375c5.385-11.517 0.391-25.194-11.138-30.551-3.152-1.472-6.443-2.138-9.688-2.138zM787.858 291.968c0-13.517-11-24.505-24.508-24.505-13.554 0-24.577 10.988-24.577 24.505s11.023 24.505 24.577 24.505c13.508 0 24.508-10.988 24.508-24.505z" />
<glyph unicode="&#xe904;" glyph-name="calendar" horiz-adv-x="1092" d="M443.665 801.783h-72.057c-14.181 0-25.689 11.265-25.689 25.201 0 13.915 11.508 25.206 25.689 25.206h72.057c13.565 0 24.638 10.81 24.638 24.119v58.372c0 13.94 11.483 25.206 25.688 25.206s25.688-11.265 25.688-25.206v-58.372c0-41.109-34.087-74.526-76.015-74.526zM681.163 801.783h-72.057c-14.184 0-25.692 11.265-25.692 25.201 0 13.915 11.508 25.206 25.692 25.206h72.057c13.565 0 24.634 10.81 24.634 24.119v58.372c0 13.94 11.483 25.206 25.692 25.206 14.205 0 25.688-11.265 25.688-25.206v-58.372c0-41.109-34.091-74.526-76.015-74.526zM491.424 275.29c-14.184 0-25.692 11.316-25.692 25.204v291.638l-85.158-83.578c-10.045-9.828-26.28-9.828-36.325 0-10.045 9.833-10.045 25.812 0 35.64l129.011 126.628c7.345 7.209 18.419 9.351 28 5.469 9.585-3.933 15.851-13.108 15.851-23.291v-352.505c0-13.888-11.483-25.204-25.688-25.204zM814.85 76.403h-682.64c-72.906 0-132.222 58.121-132.222 129.6v571.657c0 41.083 34.141 74.53 76.040 74.53h74.935c13.564 0 24.585 10.81 24.585 24.119v58.372c0 13.94 11.508 25.206 25.689 25.206 14.206 0 25.689-11.265 25.689-25.206v-58.372c0-41.109-34.063-74.526-75.963-74.526h-74.935c-13.59 0-24.661-10.84-24.661-24.123v-571.657c0-43.679 36.273-79.191 80.844-79.191h682.64c44.598 0 80.869 35.513 80.869 79.191v571.555c0 13.335-11.1 24.225-24.711 24.225-14.209 0-25.692 11.265-25.692 25.201 0 13.915 11.483 25.206 25.692 25.206 41.949 0 76.088-33.474 76.088-74.633v-571.555c0-71.479-59.341-129.6-132.245-129.6zM225.462-63.884c-24.79 0-52.020 3.907-69.566 25.002-8.991 10.763-7.347 26.641 3.622 35.462 10.995 8.847 27.179 7.183 36.17-3.579 6.654-7.989 32.472-6.679 49.503-5.772 5.061 0.227 9.916 0.479 14.489 0.58l700.106 0.025c44.572 0 80.848 35.563 80.848 79.292v605.887c0 8.493-4.394 16.154-11.743 20.539-12.097 7.234-15.949 22.736-8.578 34.633 7.371 11.892 23.146 15.676 35.324 8.416 22.783-13.612 36.374-37.377 36.374-63.589v-605.887c0-71.53-59.315-129.701-132.224-129.701h-699.515c-3.468-0.101-7.861-0.328-12.382-0.529-6.987-0.378-14.566-0.782-22.427-0.782zM246.444 827.047c0 14.82 12.305 26.843 27.385 26.843 15.131 0 27.436-12.022 27.436-26.843s-12.305-26.868-27.436-26.868c-15.080 0-27.385 12.047-27.385 26.868zM92.332 31.21c0 14.82 12.305 26.868 27.385 26.868 15.131 0 27.436-12.048 27.436-26.868s-12.305-26.843-27.436-26.843c-15.080 0-27.385 12.022-27.385 26.843z" />
<glyph unicode="&#xe905;" glyph-name="star" horiz-adv-x="1065" d="M843.763-59.715c-4.292 0-8.613 1.026-12.582 3.078l-298.625 157.088-30.24-15.903-25.138 47.791 42.796 22.519c7.911 4.159 17.226 4.159 25.138 0l262.795-138.215-50.14 292.713c-1.485 8.748 1.404 17.685 7.776 23.895l212.601 207.311-3.132 0.459 7.749 53.458 57.296-8.317c10.149-1.485 18.604-8.583 21.787-18.384 3.158-9.751 0.541-20.497-6.833-27.65l-241.625-235.633 56.97-332.645c1.755-10.152-2.403-20.385-10.719-26.433-4.725-3.402-10.287-5.13-15.876-5.13zM221.231-59.715c-5.589 0-11.152 1.728-15.876 5.13-8.316 6.048-12.474 16.308-10.719 26.433l57.025 332.645-241.681 235.633c-7.371 7.153-9.99 17.9-6.832 27.65 3.186 9.802 11.637 16.899 21.789 18.384l334.023 48.469 149.367 302.673c9.074 18.415 39.342 18.415 48.414 0l149.365-302.673 78.624-11.394-7.75-53.463-92.692 13.445c-8.802 1.271-16.389 6.807-20.328 14.771l-131.44 266.359-131.439-266.359c-3.916-7.965-11.529-13.502-20.331-14.771l-293.899-42.656 212.656-207.311c6.372-6.211 9.261-15.147 7.776-23.895l-50.194-292.713 17.955 9.477 25.165-47.818-66.394-34.939c-3.969-2.052-8.289-3.078-12.582-3.078zM220.88-59.715c-9.721 0-19.116 5.265-23.95 14.472-6.912 13.204-1.809 29.539 11.394 36.451l66.772 34.939c13.231 6.858 29.539 1.782 36.424-11.422 6.912-13.204 1.836-29.539-11.367-36.451l-66.772-34.939c-4.023-2.079-8.29-3.052-12.501-3.052zM460.052 66.010c-9.72 0-19.143 5.265-23.977 14.472-6.885 13.231-1.782 29.539 11.449 36.451l66.772 34.911c13.149 6.912 29.539 1.782 36.424-11.421 6.885-13.231 1.809-29.539-11.422-36.451l-66.772-34.911c-3.996-2.079-8.263-3.052-12.474-3.052zM402.065 39.687c0-15.876-12.907-28.782-28.783-28.782-15.903 0-28.809 12.907-28.809 28.782s12.907 28.755 28.809 28.755c15.876 0 28.783-12.88 28.783-28.755zM1036.147 532.172c-1.323 0-2.646 0.081-3.968 0.297l-83.701 12.367c-14.742 2.187-24.948 15.93-22.762 30.646 2.187 14.769 15.876 25.002 30.673 22.761l83.701-12.366c14.715-2.187 24.921-15.93 22.735-30.646-1.971-13.446-13.501-23.059-26.676-23.059zM776.638 570.135c-1.323 0-2.673 0.081-4.023 0.297l-84.376 12.637c-14.742 2.214-24.894 15.93-22.707 30.673 2.214 14.742 15.687 24.948 30.7 22.708l84.376-12.637c14.742-2.186 24.894-15.957 22.708-30.673-1.998-13.419-13.528-23.004-26.676-23.004zM901.005 580.956c0-15.876-12.907-28.782-28.783-28.782-15.903 0-28.809 12.907-28.809 28.782s12.907 28.782 28.809 28.782c15.876 0 28.783-12.907 28.783-28.782z" />
<glyph unicode="&#xe906;" glyph-name="email" horiz-adv-x="1210" d="M142.818 905.368h924.365v48.144h-924.365v-48.144zM1067.182 905.368c49.338 0 91.473-42.449 91.473-96.288h48.144c0 78.557-61.856 144.432-139.618 144.432v-48.144zM1158.656 809.080v-722.16h48.144v722.16h-48.144zM1158.656 86.92c0-53.84-42.136-96.288-91.473-96.288v-48.144c77.762 0 139.618 65.875 139.618 144.432h-48.144zM1067.182-9.368h-924.365v-48.144h924.365v48.144zM142.818-9.368c-49.339 0-91.473 42.448-91.473 96.288h-48.144c0-78.556 61.856-144.432 139.618-144.432v48.144zM51.344 86.92v722.16h-48.144v-722.16h48.144zM51.344 809.080c0 53.839 42.135 96.288 91.473 96.288v48.144c-77.761 0-139.618-65.875-139.618-144.432h48.144zM1196.912 789.629c10.741 7.833 13.1 22.891 5.267 33.633s-22.892 13.101-33.634 5.268l28.367-38.901zM605 387.82l-14.183-19.45c8.45-6.163 19.917-6.163 28.367 0l-14.183 19.45zM41.454 828.53c-10.742 7.833-25.8 5.475-33.633-5.268s-5.475-25.8 5.268-33.633l28.365 38.901zM1168.545 828.53l-577.728-421.259 28.367-38.901 577.728 421.26-28.367 38.901zM619.183 407.271l-577.729 421.259-28.365-38.901 577.728-421.26 28.367 38.901z" />
<glyph unicode="&#xe907;" glyph-name="arrow-left" horiz-adv-x="585" d="M499.404-48.739c15.266-15.261 40.016-15.261 55.282 0 15.267 15.269 15.267 40.022 0 55.291l-55.282-55.291zM57.953 447.999l-27.642 27.642c-15.266-15.266-15.266-40.016 0-55.282l27.642 27.642zM554.688 889.451c15.267 15.266 15.267 40.017 0 55.283s-40.016 15.266-55.282 0l55.282-55.283zM554.688 6.551l-469.093 469.089-55.283-55.282 469.093-469.098 55.282 55.291zM85.594 420.357l469.093 469.093-55.282 55.283-469.093-469.093 55.283-55.282z" />
<glyph unicode="&#xe908;" glyph-name="file" horiz-adv-x="838" d="M467.762 935.619l17.24 17.24c-4.572 4.573-10.774 7.141-17.24 7.141v-24.381zM126.428 935.619v0zM28.905 838.095v0zM28.905 57.905v0zM809.095 594.285h24.381c0 6.466-2.57 12.668-7.138 17.24l-17.242-17.24zM467.762 959.999h-341.333v-48.761h341.333v48.761zM126.428 959.999c-32.331 0-63.338-12.844-86.2-35.705l34.48-34.48c13.716 13.716 32.321 21.423 51.72 21.423v48.761zM40.229 924.294c-22.861-22.861-35.705-53.868-35.705-86.2h48.761c0 19.399 7.706 38.003 21.423 51.72l-34.48 34.48zM4.524 838.095v-780.189h48.761v780.189h-48.761zM4.524 57.905c0-32.329 12.844-63.337 35.705-86.201l34.48 34.479c-13.716 13.716-21.423 32.324-21.423 51.722h-48.761zM40.229-28.296c22.861-22.86 53.868-35.704 86.2-35.704v48.761c-19.399 0-38.003 7.704-51.72 21.421l-34.48-34.479zM126.428-63.999h585.142v48.761h-585.142v-48.761zM711.571-63.999c32.329 0 63.337 12.844 86.201 35.704l-34.479 34.479c-13.716-13.716-32.324-21.421-51.722-21.421v-48.761zM797.772-28.296c22.86 22.864 35.704 53.872 35.704 86.201h-48.761c0-19.398-7.704-38.005-21.421-51.722l34.479-34.479zM833.475 57.905v536.38h-48.761v-536.38h48.761zM826.336 611.526l-341.336 341.333-34.479-34.48 341.331-341.333 34.484 34.479zM492.142 935.619c0 13.465-10.916 24.381-24.381 24.381s-24.381-10.916-24.381-24.381h48.761zM467.762 594.285h-24.381c0-13.465 10.916-24.381 24.381-24.381v24.381zM809.095 569.905c13.465 0 24.381 10.916 24.381 24.381s-10.916 24.381-24.381 24.381v-48.761zM443.381 935.619v-341.333h48.761v341.333h-48.761zM467.762 569.905h341.333v48.761h-341.333v-48.761z" />
<glyph unicode="&#xe909;" glyph-name="help" d="M983.040 448c0-260.15-210.891-471.040-471.040-471.040v-40.96c282.772 0 512 229.228 512 512h-40.96zM512-23.040c-260.148 0-471.040 210.891-471.040 471.040h-40.96c0-282.772 229.23-512 512-512v40.96zM40.96 448c0 260.148 210.892 471.040 471.040 471.040v40.96c-282.77 0-512-229.23-512-512h40.96zM512 919.040c260.15 0 471.040-210.892 471.040-471.040h40.96c0 282.77-229.228 512-512 512v-40.96zM688.128 448c0-97.272-78.855-176.128-176.128-176.128v-40.96c119.894 0 217.087 97.193 217.087 217.087h-40.96zM512 271.872c-97.272 0-176.128 78.855-176.128 176.128h-40.96c0-119.894 97.193-217.087 217.087-217.087v40.96zM335.872 448c0 97.272 78.855 176.128 176.128 176.128v40.96c-119.894 0-217.087-97.193-217.087-217.087h40.96zM512 624.128c97.272 0 176.128-78.855 176.128-176.128h40.96c0 119.894-97.193 217.087-217.087 217.087v-40.96zM178.321 809.822c-7.998 7.998-20.965 7.998-28.963 0s-7.998-20.965 0-28.963l28.963 28.963zM357.763 572.455c7.998-7.999 20.965-7.999 28.963 0s7.999 20.965 0 28.963l-28.963-28.963zM149.358 780.859l208.404-208.404 28.963 28.963-208.404 208.404-28.963-28.963zM665.745 323.218c-7.998 7.998-20.965 7.998-28.963 0s-7.998-20.965 0-28.963l28.963 28.963zM845.187 85.85c7.998-7.999 20.965-7.999 28.963 0s7.999 20.965 0 28.963l-28.963-28.963zM636.782 294.255l208.404-208.404 28.963 28.963-208.404 208.404-28.963-28.963zM636.782 601.418c-7.998-7.998-7.998-20.965 0-28.963s20.965-7.999 28.963 0l-28.963 28.963zM874.15 780.859c7.999 7.998 7.999 20.965 0 28.963s-20.965 7.998-28.963 0l28.963-28.963zM665.745 572.455l208.404 208.404-28.963 28.963-208.404-208.404 28.963-28.963zM636.782 601.5c-7.998-7.998-7.998-20.965 0-28.963s20.965-7.999 28.963 0l-28.963 28.963zM839.251 746.043c7.999 7.998 7.999 20.965 0 28.963s-20.965 7.998-28.963 0l28.963-28.963zM665.745 572.537l173.506 173.506-28.963 28.963-173.506-173.506 28.963-28.963zM149.358 114.813c-7.998-7.998-7.998-20.965 0-28.963s20.965-7.999 28.963 0l-28.963 28.963zM386.726 294.255c7.999 7.998 7.999 20.965 0 28.963s-20.965 7.998-28.963 0l28.963-28.963zM178.321 85.85l208.404 208.404-28.963 28.963-208.404-208.404 28.963-28.963z" />
<glyph unicode="&#xe90a;" glyph-name="idea" d="M511.996-63.993c-282.317 0-511.997 229.651-511.997 511.971 0 126.115 46.219 247.279 130.196 341.132 10.011 11.234 27.176 12.186 38.411 2.148 11.181-10.010 12.133-27.202 2.122-38.41-75.027-83.896-116.323-192.139-116.323-304.869 0-252.285 205.278-457.563 457.589-457.563 48.204 0 95.702 7.426 141.105 22.143 14.256 4.625 29.652-3.237 34.25-17.492 4.624-14.282-3.21-29.625-17.492-34.249-50.816-16.458-103.973-24.809-157.863-24.809zM874.246 98.568c-6.448 0-12.922 2.258-18.090 6.882-11.208 9.984-12.214 27.176-2.232 38.384 74.592 83.841 115.671 191.867 115.671 304.163 0 252.311-205.277 457.59-457.562 457.59-60.528 0-119.316-11.616-174.702-34.522-13.819-5.686-29.761 0.87-35.528 14.772-5.74 13.874 0.843 29.788 14.744 35.528 62.024 25.624 127.775 38.628 195.485 38.628 282.289 0 511.969-229.679 511.969-511.997 0-125.655-45.974-246.519-129.435-340.317-5.358-6.039-12.84-9.113-20.32-9.113zM257.685 849.491c0-15.996-13.030-28.999-28.999-28.999-16.023 0-29.053 13.003-29.053 28.999s13.030 28.972 29.053 28.972c15.968 0 28.999-12.976 28.999-28.972zM814.071 58.927c0-15.996-13.030-28.999-28.999-28.999-16.023 0-29.053 13.003-29.053 28.999s13.030 28.972 29.053 28.972c15.968 0 28.999-12.976 28.999-28.972zM512.001 727.755c-74.456 0-135.066-60.582-135.066-135.065 0-36.834 14.554-71.272 40.995-96.898 16.621-16.16 18.226-41.893 20.076-71.736 4.271-68.444 12.922-100.68 73.993-100.68 58.977 0 67.219 38.629 73.777 102.258 3.072 29.815 5.738 55.576 21.734 71.546 25.49 25.544 39.554 59.466 39.554 95.51 0 74.482-60.608 135.065-135.066 135.065zM512.001 268.969c-118.88 0-125.028 98.694-128.292 151.714-0.789 12.922-2.013 32.426-4.815 37.405-35.936 34.602-56.365 82.916-56.365 134.603 0 104.489 84.983 189.473 189.472 189.473s189.472-84.984 189.472-189.473c0-50.57-19.722-98.122-55.494-133.978-2.53-4.271-4.678-24.973-6.094-38.683-5.44-52.802-15.588-151.061-127.884-151.061zM549.727 182.409h-81.61c-15.043 0-27.203 12.187-27.203 27.203 0 15.043 12.16 27.203 27.203 27.203h81.61c15.044 0 27.203-12.16 27.203-27.203 0-15.016-12.16-27.203-27.203-27.203zM509.733 113.768c-7.1 0-14.173 2.992-19.342 7.889-4.897 5.141-7.862 12.241-7.862 19.314s2.965 14.146 7.862 19.314c10.364 10.065 28.291 10.065 38.656 0 4.897-5.169 7.889-12.242 7.889-19.314s-2.992-14.173-7.889-19.314c-5.169-4.897-12.242-7.889-19.314-7.889z" />
<glyph unicode="&#xe90b;" glyph-name="menu" d="M963.765 448c0-249.504-202.261-451.765-451.765-451.765v-60.235c282.769 0 512 229.231 512 512h-60.235zM512-3.765c-249.503 0-451.765 202.261-451.765 451.765h-60.235c0-282.769 229.23-512 512-512v60.235zM60.235 448c0 249.503 202.262 451.765 451.765 451.765v60.235c-282.77 0-512-229.23-512-512h60.235zM512 899.765c249.504 0 451.765-202.262 451.765-451.765h60.235c0 282.77-229.231 512-512 512v-60.235zM240.941 463.059c-8.317 0-15.059-6.742-15.059-15.059s6.742-15.059 15.059-15.059v30.118zM783.059 432.941c8.315 0 15.059 6.742 15.059 15.059s-6.744 15.059-15.059 15.059v-30.118zM240.941 432.941h542.118v30.118h-542.118v-30.118zM240.941 643.765c-8.317 0-15.059-6.742-15.059-15.059s6.742-15.059 15.059-15.059v30.118zM783.059 613.647c8.315 0 15.059 6.742 15.059 15.059s-6.744 15.059-15.059 15.059v-30.118zM240.941 613.647h542.118v30.118h-542.118v-30.118zM240.941 282.353c-8.317 0-15.059-6.742-15.059-15.059s6.742-15.059 15.059-15.059v30.118zM783.059 252.235c8.315 0 15.059 6.742 15.059 15.059s-6.744 15.059-15.059 15.059v-30.118zM240.941 252.235h542.118v30.118h-542.118v-30.118z" />
<glyph unicode="&#xe90c;" glyph-name="message" horiz-adv-x="1092" d="M925.947 124.977h-206.738c-15.744 0-28.525 12.578-28.525 28.078 0 15.528 12.78 28.077 28.525 28.077h206.738c60.1 0 109.017 48.096 109.017 107.17v506.428c0 59.104-48.917 107.172-109.017 107.172h-397.36c-15.717 0-28.525 12.577-28.525 28.077 0 15.528 12.808 28.077 28.525 28.077h397.36c91.562 0 166.064-73.253 166.064-163.326v-506.428c0-90.071-74.502-163.324-166.064-163.324zM166.11-63.87c-3.679 0-7.387 0.702-10.896 2.162-10.697 4.324-17.628 14.572-17.628 25.915v163.185c-78.041 13.337-137.597 80.413-137.597 160.909v506.428c0 90.073 74.503 163.326 166.121 163.326h140.793c15.744 0 28.523-12.55 28.523-28.077 0-15.5-12.778-28.077-28.523-28.077h-140.793c-60.157 0-109.074-48.068-109.074-107.172v-506.428c0-59.074 48.918-107.17 109.074-107.17 15.744 0 28.524-12.55 28.524-28.077v-121.041l143.017 140.892c5.362 5.279 12.637 8.226 20.193 8.226h173.567c15.772 0 28.523-12.55 28.523-28.077 0-15.499-12.75-28.078-28.523-28.078h-161.73l-183.405-180.621c-5.448-5.363-12.75-8.226-20.166-8.226zM212.166 534.356c0 42.705 35.198 77.437 78.553 77.437 43.413 0 78.724-34.731 78.724-77.437 0-42.677-35.312-77.297-78.724-77.297-43.355 0-78.553 34.619-78.553 77.297zM477.117 534.356c0 42.705 35.198 77.437 78.582 77.437s78.696-34.731 78.696-77.437c0-42.677-35.312-77.297-78.696-77.297s-78.582 34.619-78.582 77.297zM742.104 534.356c0 42.705 35.198 77.437 78.553 77.437 43.413 0 78.724-34.731 78.724-77.437 0-42.677-35.312-77.297-78.724-77.297-43.355 0-78.553 34.619-78.553 77.297zM586.166 155.43c0 16.509 13.634 29.93 30.377 29.93 16.8 0 30.463-13.421 30.463-29.93s-13.663-29.902-30.463-29.902c-16.743 0-30.377 13.393-30.377 29.902zM405.112 929.941c0 16.509 13.634 29.93 30.377 29.93 16.8 0 30.463-13.421 30.463-29.93s-13.663-29.93-30.463-29.93c-16.743 0-30.377 13.421-30.377 29.93z" />
<glyph unicode="&#xe90d;" glyph-name="arrow-right" horiz-adv-x="585" d="M30.311 6.552c-15.266-15.269-15.266-40.022 0-55.291 15.266-15.261 40.017-15.261 55.283 0l-55.283 55.291zM527.046 448l27.642-27.642c15.267 15.266 15.267 40.016 0 55.282l-27.642-27.642zM85.595 944.735c-15.266 15.266-40.017 15.266-55.283 0s-15.266-40.017 0-55.283l55.283 55.283zM85.595-48.738l469.093 469.097-55.282 55.282-469.093-469.089 55.283-55.291zM554.688 475.642l-469.093 469.093-55.283-55.283 469.093-469.093 55.282 55.282z" />
<glyph unicode="&#xe90e;" glyph-name="notifications" d="M30.632 222.589c-11.311 0-20.48-9.167-20.48-20.48 0-11.309 9.17-20.48 20.48-20.48v40.96zM178.113 349.59v0zM178.113 595.395v0zM522.237 939.519v0zM866.363 595.395v0zM866.363 349.59v0zM625.002-4.808c5.677 9.781 2.343 22.315-7.438 27.992-9.785 5.673-22.315 2.343-27.992-7.442l35.431-20.549zM454.907 15.741c-5.677 9.785-18.209 13.115-27.994 7.442-9.783-5.677-13.114-18.21-7.439-27.992l35.432 20.549zM1013.847 222.589h-983.215v-40.96h983.215v40.96zM30.632 181.629c44.546 0 87.268 17.695 118.767 49.197l-28.963 28.963c-23.817-23.818-56.12-37.2-89.804-37.2v-40.96zM149.399 230.826c31.5 31.498 49.195 74.22 49.195 118.764h-40.96c0-33.681-13.381-65.987-37.199-89.801l28.963-28.963zM198.594 349.59v245.805h-40.96v-245.805h40.96zM198.594 595.395c0 85.836 34.098 168.156 94.793 228.852l-28.963 28.963c-68.377-68.377-106.79-161.116-106.79-257.815h40.96zM293.386 824.247c60.695 60.695 143.016 94.793 228.851 94.793v40.96c-96.698 0-189.437-38.413-257.814-106.79l28.963-28.963zM522.237 919.040c85.835 0 168.158-34.098 228.852-94.793l28.963 28.963c-68.375 68.377-161.116 106.79-257.815 106.79v-40.96zM751.088 824.247c60.694-60.695 94.794-143.016 94.794-228.852h40.96c0 96.699-38.412 189.438-106.791 257.815l-28.963-28.963zM845.882 595.395v-245.805h40.96v245.805h-40.96zM845.882 349.59c0-44.544 17.695-87.265 49.197-118.764l28.963 28.963c-23.818 23.814-37.2 56.119-37.2 89.801h-40.96zM895.079 230.826c31.498-31.503 74.22-49.197 118.768-49.197v40.96c-33.686 0-65.987 13.382-89.805 37.2l-28.963-28.963zM589.571 15.741c-7.152-12.678-15.782-21.278-28.479-28.393l20.443-35.492c17.15 10.081 33.333 26.214 43.467 43.336l-35.431 20.549zM561.092-12.652c-12.53-7.414-24.298-10.563-38.854-10.388v-40.96c19.894 0.176 41.971 6.079 59.298 15.856l-20.443 35.492zM522.237-23.040c-14.557-0.176-26.324 2.973-38.85 10.388l-20.443-35.492c17.326-9.777 39.403-15.679 59.293-15.856v40.96zM483.386-12.652c-12.702 7.115-21.328 15.716-28.479 28.393l-35.432-20.549c10.133-17.122 26.318-33.255 43.469-43.336l20.443 35.492z" />
<glyph unicode="&#xe90f;" glyph-name="plane" horiz-adv-x="960" d="M669.883-63.978c-3.561 0-7.146 0.766-10.465 2.369l-123.5 58.385c-12.064 5.695-17.176 19.98-11.41 31.896s20.204 16.989 32.316 11.27l88.834-41.994v26.393c-132.924 118.686-132.924 131.032-132.924 141.944v140.699c0 7.874 3.924 15.242 10.465 19.694 6.565 4.474 14.947 5.48 22.36 2.656l365.994-137.661v47.88l-365.921 302.288c-5.499 4.548-8.673 11.272-8.673 18.354v206.837c0 32.376-11.773 63.746-33.116 88.321-8.697 10.026-7.534 25.124 2.616 33.714s25.485 7.49 34.157-2.56c28.876-33.26 44.792-75.662 44.792-119.475v-195.639l365.898-302.312c5.522-4.546 8.696-11.294 8.696-18.376v-93.777c0-7.872-3.948-15.218-10.49-19.692-6.564-4.452-14.898-5.456-22.36-2.657l-365.969 137.684v-100.045c13.372-17.108 73.111-73.388 124.905-119.451 5.111-4.546 8.018-11.007 8.018-17.779v-75.039c0-8.231-4.288-15.865-11.313-20.243-3.925-2.441-8.406-3.685-12.912-3.685zM290.094-63.978c-4.504 0-8.962 1.244-12.91 3.661-7.050 4.379-11.314 12.036-11.314 20.267v75.039c0 6.772 2.906 13.232 8.018 17.779 51.77 46.038 111.509 102.343 124.905 119.451v100.045l-365.921-137.708c-7.437-2.824-15.843-1.819-22.384 2.657-6.565 4.45-10.489 11.82-10.489 19.692v93.801c0 7.082 3.173 13.806 8.697 18.352l365.849 302.312v195.663c0 43.812 15.916 86.239 44.84 119.475 8.746 10.026 24.056 11.126 34.158 2.56 10.15-8.614 11.312-23.712 2.592-33.738-21.392-24.574-33.14-55.92-33.14-88.297v-206.837c0-7.082-3.174-13.806-8.672-18.354l-365.874-302.336v-47.88l365.946 137.709c7.436 2.8 15.818 1.794 22.36-2.656 6.564-4.476 10.488-11.822 10.488-19.694v-140.699c0-10.912 0-23.258-132.923-141.944v-26.273l82.851 39.482c12.064 5.695 26.55 0.718 32.34-11.175 5.814-11.892 0.752-26.201-11.288-31.944l-117.615-56.040c-3.318-1.579-6.928-2.369-10.514-2.369zM503.145 31.266c0-14.070-11.555-25.484-25.8-25.484-14.293 0-25.872 11.414-25.872 25.484s11.58 25.508 25.872 25.508c14.244 0 25.8-11.438 25.8-25.508zM503.145 934.472c0-14.070-11.555-25.484-25.8-25.484-14.293 0-25.872 11.414-25.872 25.484s11.58 25.508 25.872 25.508c14.244 0 25.8-11.438 25.8-25.508z" />
<glyph unicode="&#xe910;" glyph-name="arrow-full-up" horiz-adv-x="2048" d="M2048.021-63.998h-2048.042l1024.036 1023.995 1024.006-1023.995z" />
<glyph unicode="&#xe911;" glyph-name="search" d="M817.594 530.757c0-214.483-173.874-388.357-388.357-388.357v-40.88c237.061 0 429.236 192.175 429.236 429.236h-40.88zM429.237 142.4c-214.484 0-388.357 173.874-388.357 388.357h-40.88c0-237.061 192.175-429.236 429.236-429.236v40.88zM40.88 530.757c0 214.484 173.873 388.357 388.357 388.357v40.88c-237.061 0-429.236-192.175-429.236-429.236h40.88zM429.237 919.114c214.483 0 388.357-173.873 388.357-388.357h40.88c0 237.061-192.175 429.236-429.236 429.236v-40.88zM987.112-56.012c7.982-7.982 20.924-7.982 28.906 0s7.982 20.924 0 28.906l-28.906-28.906zM732.586 256.327c-7.982 7.982-20.924 7.982-28.906 0s-7.982-20.924 0-28.906l28.906 28.906zM1016.018-27.106l-283.432 283.432-28.906-28.906 283.432-283.432 28.906 28.906z" />
<glyph unicode="&#xe912;" glyph-name="social-facebook" d="M886.008 959.999h-748.018c-76.206 0-137.986-61.777-137.986-137.986v-748.022c0-76.206 61.777-137.987 137.986-137.987h368.92l0.627 365.923h-95.065c-12.355 0-22.382 9.988-22.429 22.345l-0.456 117.951c-0.047 12.42 10.010 22.515 22.432 22.515h94.891v113.971c0 132.262 80.78 204.28 198.765 204.28h96.818c12.386 0 22.43-10.042 22.43-22.432v-99.457c0-12.385-10.035-22.425-22.417-22.432l-59.417-0.028c-64.165 0-76.59-30.491-76.59-75.236v-98.666h140.991c13.436 0 23.859-11.733 22.276-25.075l-13.982-117.951c-1.335-11.285-10.906-19.793-22.272-19.793h-126.382l-0.631-365.919h219.514c76.206 0 137.983 61.776 137.983 137.983v748.031c-0.004 76.208-61.78 137.986-137.987 137.986z" />
<glyph unicode="&#xe913;" glyph-name="social-instagram" d="M718.946 960h-413.891c-168.208 0-305.055-136.847-305.055-305.055v-413.891c0-168.205 136.847-305.054 305.055-305.054h413.891c168.205 0 305.054 136.849 305.054 305.054v413.891c0 168.208-136.849 305.055-305.054 305.055zM920.986 241.054c0-111.582-90.458-202.039-202.039-202.039h-413.891c-111.583 0-202.041 90.458-202.041 202.039v413.891c0 111.585 90.458 202.041 202.041 202.041h413.891c111.582 0 202.039-90.456 202.039-202.041v-413.891zM512.011 712.96c-146.034 0-264.843-118.808-264.843-264.841s118.808-264.844 264.843-264.844c146.035 0 264.843 118.81 264.843 264.844s-118.808 264.841-264.843 264.841zM512.011 286.289c-89.376 0-161.828 72.452-161.828 161.828s72.454 161.828 161.828 161.828c89.376 0 161.828-72.452 161.828-161.828 0-89.374-72.454-161.828-161.828-161.828zM777.361 647.476c35.049 0 63.462 28.413 63.462 63.462s-28.413 63.462-63.462 63.462c-35.049 0-63.462-28.413-63.462-63.462s28.413-63.462 63.462-63.462z" />
<glyph unicode="&#xe914;" glyph-name="social-linkedin" d="M931.371 960h-838.742c-51.157 0-92.629-41.472-92.629-92.629v-838.737c0-51.162 41.472-92.634 92.629-92.634h838.737c51.162 0 92.634 41.472 92.634 92.634v838.737c0 51.157-41.472 92.629-92.629 92.629zM316.869 75.81c0-14.886-12.068-26.957-26.956-26.957h-114.747c-14.888 0-26.956 12.070-26.956 26.957v481.015c0 14.888 12.068 26.956 26.956 26.956h114.747c14.888 0 26.956-12.068 26.956-26.956v-481.015zM232.539 629.125c-60.204 0-109.011 48.806-109.011 109.010s48.806 109.010 109.011 109.010c60.204 0 109.010-48.806 109.010-109.010s-48.803-109.010-109.010-109.010zM916.535 73.638c0-13.687-11.098-24.785-24.785-24.785h-123.132c-13.687 0-24.789 11.098-24.789 24.785v225.626c0 33.655 9.873 147.49-87.957 147.49-75.887 0-91.277-77.918-94.37-112.883v-260.233c0-13.687-11.093-24.785-24.785-24.785h-119.088c-13.687 0-24.785 11.098-24.785 24.785v485.359c0 13.687 11.098 24.785 24.785 24.785h119.088c13.687 0 24.785-11.098 24.785-24.785v-41.967c28.139 42.229 69.956 74.823 158.993 74.823 197.167 0 196.041-184.203 196.041-285.413v-232.802z" />
<glyph unicode="&#xe915;" glyph-name="social-twitter" horiz-adv-x="1260" d="M1260.308 959.426c-54.859-38.548-115.598-68.031-179.881-87.313-34.501 39.519-80.352 67.529-131.356 80.241s-104.692 9.515-153.813-9.161c-49.117-18.676-91.294-51.928-120.824-95.26-29.527-43.332-44.985-94.653-44.28-147.022v-57.068c-100.675-2.601-200.432 19.642-290.386 64.746s-167.317 111.67-225.195 193.77c0 0-229.147-513.609 286.433-741.878-117.98-79.777-258.525-119.78-401.006-114.133 515.58-285.338 1145.734 0 1145.734 656.275-0.051 15.896-1.587 31.753-4.584 47.366 58.47 57.439 99.73 129.959 119.158 209.438z" />
<glyph unicode="&#xe916;" glyph-name="social-youtube" horiz-adv-x="1536" d="M1216.992 960h-897.985c-176.183 0-319.007-134.557-319.007-300.543v-422.913c0-165.984 142.824-300.544 319.007-300.544h897.985c176.186 0 319.008 134.56 319.008 300.544v422.913c0 165.985-142.822 300.543-319.008 300.543zM1001.248 427.424l-420.015-188.73c-11.192-5.024-24.12 2.662-24.12 14.342v389.25c0 11.847 13.268 19.524 24.483 14.17l420.017-200.524c12.486-5.961 12.269-22.833-0.365-28.508z" />
<glyph unicode="&#xe917;" glyph-name="check" horiz-adv-x="1418" d="M1384.628 819.946c30.304 30.306 30.304 79.442 0 109.749s-79.443 30.306-109.747 0l109.747-109.749zM476.113 21.179l-54.875-54.874c30.307-30.304 79.442-30.304 109.749 0l-54.875 54.874zM142.969 464.073c-30.306 30.306-79.442 30.306-109.749 0s-30.306-79.442 0-109.749l109.749 109.749zM1274.88 929.695l-853.642-853.642 109.749-109.747 853.641 853.641-109.747 109.749zM530.987 76.053l-388.019 388.020-109.749-109.749 388.019-388.018 109.749 109.747z" />
<glyph unicode="&#xe918;" glyph-name="circle-close" d="M975.239 448c0-255.839-207.399-463.239-463.239-463.239v-48.761c282.77 0 512 229.23 512 512h-48.761zM512-15.239c-255.84 0-463.239 207.399-463.239 463.239h-48.761c0-282.77 229.231-512 512-512v48.761zM48.761 448c0 255.84 207.398 463.239 463.239 463.239v48.761c-282.77 0-512-229.231-512-512h48.761zM512 911.239c255.839 0 463.239-207.398 463.239-463.239h48.761c0 282.77-229.23 512-512 512v-48.761zM675.526 577.046c9.522 9.522 9.522 24.958 0 34.48s-24.958 9.522-34.479 0l34.479-34.48zM348.474 318.954c-9.522-9.521-9.522-24.958 0-34.479s24.958-9.522 34.48 0l-34.48 34.479zM641.046 611.526l-292.572-292.572 34.48-34.479 292.572 292.572-34.479 34.48zM382.954 611.526c-9.522 9.522-24.958 9.522-34.48 0s-9.522-24.958 0-34.48l34.48 34.48zM641.046 284.474c9.521-9.522 24.958-9.522 34.479 0s9.522 24.958 0 34.479l-34.479-34.479zM348.474 577.046l292.572-292.572 34.479 34.479-292.572 292.572-34.48-34.48z" />
<glyph unicode="&#xe919;" glyph-name="document" horiz-adv-x="815" d="M760.477 701.697c0-12.552 11.173-23.723 23.768-23.723 13.976 0 23.744 11.173 23.744 23.723 0 12.596-11.173 23.768-23.744 23.768-12.596 0-23.768-11.173-23.768-23.768zM4.205 183.088c0-12.575 11.172-23.746 23.768-23.746 13.976 0 23.746 11.172 23.746 23.746 0 12.597-11.172 23.767-23.746 23.767-13.999 0-23.768-11.171-23.768-23.767zM95.073 729.695h127.21v127.208l-127.21-127.208zM27.973 241.795c-15.379 0-27.974 12.575-27.974 27.976v431.926c0 7.011 2.804 12.596 6.988 16.802l1.402 1.382 223.663 223.663h1.402c4.206 4.206 11.195 7.009 18.183 7.009h434.754c71.281 0 128.611-57.327 128.611-128.634v-33.514c0-15.402-12.596-27.976-27.974-27.976s-27.953 12.575-27.953 27.976v36.32c0 39.146-32.158 72.707-72.684 72.707h-405.398v-195.734c0-15.357-12.596-27.953-27.953-27.953h-195.711v-403.972c-1.38-15.402-13.999-27.976-29.354-27.976zM128.611-54.552c-71.283 0-128.612 57.329-128.612 128.612v26.55c0 15.379 12.597 27.952 27.974 27.952 15.356 0 27.974-12.574 27.974-27.952v-26.55c0-39.169 32.136-72.707 72.663-72.707h556.377c39.146 0 72.684 32.158 72.684 72.707v538.172c0 15.399 12.596 27.974 27.953 27.974 15.378 0 27.974-12.575 27.974-27.974v-536.792c0-71.283-57.33-128.612-128.611-128.612l-556.377-1.38z" />
<glyph unicode="&#xe91a;" glyph-name="arrow-shaft-down" horiz-adv-x="796" d="M428.032 929.969c0 16.585-13.446 30.031-30.031 30.031s-30.031-13.446-30.031-30.031h60.063zM367.969-31.037c0-16.583 13.446-30.031 30.031-30.031s30.031 13.448 30.031 30.031h-60.063zM367.969 929.969v-961.005h60.063v961.005h-60.063zM779.615 308.105c11.725 11.728 11.725 30.743 0 42.47-11.73 11.728-30.746 11.728-42.477 0l42.477-42.47zM398-31.037l-21.235-21.235c11.728-11.729 30.743-11.729 42.47 0l-21.235 21.235zM58.859 350.575c-11.728 11.728-30.743 11.728-42.47 0s-11.728-30.743 0-42.47l42.47 42.47zM737.14 350.575l-360.373-360.378 42.47-42.47 360.38 360.377-42.477 42.47zM419.236-9.801l-360.377 360.378-42.47-42.47 360.378-360.377 42.47 42.47z" />
<glyph unicode="&#xe91b;" glyph-name="image" d="M136.793 899.812h747.351v60.055h-747.351v-60.055zM884.144 899.812c42.38 0 76.739-34.356 76.739-76.737h60.055c0 75.548-61.244 136.792-136.794 136.792v-60.055zM960.883 823.074v-747.351h60.055v747.351h-60.055zM960.883 75.723c0-42.38-34.357-76.739-76.739-76.739v-60.055c75.549 0 136.794 61.244 136.794 136.794h-60.055zM884.144-1.016h-747.351v-60.055h747.351v60.055zM136.793-1.016c-42.38 0-76.737 34.357-76.737 76.739h-60.055c0-75.549 61.244-136.794 136.792-136.794v60.055zM60.055 75.723v747.351h-60.055v-747.351h60.055zM60.055 823.074c0 42.38 34.356 76.737 76.737 76.737v60.055c-75.548 0-136.792-61.244-136.792-136.792h60.055zM373.944 635.969c0-27.64-22.406-50.047-50.047-50.047v-60.055c60.808 0 110.102 49.294 110.102 110.102h-60.055zM323.898 585.923c-27.639 0-50.045 22.406-50.045 50.047h-60.055c0-60.808 49.294-110.102 110.101-110.102v60.055zM273.852 635.969c0 27.639 22.406 50.045 50.045 50.045v60.055c-60.807 0-110.101-49.294-110.101-110.101h60.055zM323.898 686.015c27.64 0 50.047-22.406 50.047-50.045h60.055c0 60.807-49.294 110.101-110.102 110.101v-60.055zM969.812 268.151c11.723-11.726 30.736-11.726 42.465 0 11.723 11.726 11.723 30.74 0 42.466l-42.465-42.466zM724.132 556.296l21.23 21.232c-11.724 11.726-30.736 11.726-42.464 0l21.233-21.232zM115.694-9.676c-11.726-11.727-11.726-30.74 0-42.464 11.726-11.728 30.739-11.728 42.465 0l-42.465 42.464zM1012.277 310.617l-266.915 266.911-42.464-42.465 266.914-266.912 42.465 42.466zM702.899 577.528l-587.206-587.206 42.465-42.464 587.203 587.203-42.464 42.465z" />
<glyph unicode="&#xe91c;" glyph-name="globe" d="M963.764 448.001c0-249.502-202.262-451.763-451.763-451.763v-60.236c282.77 0 511.999 229.23 511.999 511.999h-60.236zM511.999-3.764c-249.502 0-451.763 202.262-451.763 451.763h-60.236c0-282.77 229.23-511.999 511.999-511.999v60.236zM60.236 448.001c0 249.502 202.262 451.763 451.763 451.763v60.236c-282.77 0-511.999-229.23-511.999-511.999h60.236zM511.999 899.764c249.502 0 451.763-202.262 451.763-451.763h60.236c0 282.77-229.23 511.999-511.999 511.999v-60.236zM30.119 478.109c-16.633 0-30.118-13.484-30.118-30.118s13.484-30.118 30.118-30.118v60.236zM993.881 417.873c16.631 0 30.118 13.484 30.118 30.118s-13.486 30.118-30.118 30.118v-60.236zM30.119 417.873h963.762v60.236h-963.762v-60.236zM704.758 448.001l30.111-0.628c0.010 0.418 0.010 0.836 0 1.255l-30.111-0.627zM512.006-33.881l-22.238-20.312c5.706-6.246 13.777-9.807 22.238-9.807s16.532 3.56 22.238 9.807l-22.238 20.312zM319.253 448.001l-30.111 0.627c-0.008-0.418-0.008-0.836 0-1.255l30.111 0.628zM489.768 909.568c117.257-127.651 181.754-288.892 184.879-462.197l60.223 1.255c-4.32 184.056-76.82 365.305-200.627 501.567l-44.475-40.625zM674.646 448.627c-3.125-173.304-67.621-334.544-184.879-462.197l44.475-40.623c123.807 136.26 196.306 317.512 200.627 501.566l-60.223 1.255zM534.243-13.569c-117.257 127.653-181.754 288.893-184.878 462.197l-60.224-1.255c4.32-184.054 76.82-365.304 200.627-501.566l44.475 40.623zM349.365 447.373c3.125 173.304 67.621 334.546 184.878 462.197l-44.475 40.625c-123.807-136.261-196.306-317.51-200.627-501.567l60.224-1.255z" />
<glyph unicode="&#xe91d;" glyph-name="play" horiz-adv-x="768" d="M46.828 897.561l25.976 38.965c-14.37 9.58-32.846 10.473-48.073 2.324s-24.733-24.018-24.733-41.288h46.83zM721.173 447.997l25.976-38.965c13.028 8.686 20.853 23.307 20.853 38.965s-7.826 30.279-20.853 38.964l-25.976-38.964zM46.828-1.567h-46.83c0-17.27 9.506-33.139 24.733-41.285 15.227-8.148 33.703-7.258 48.073 2.322l-25.976 38.963zM20.852 858.596l674.345-449.564 51.952 77.929-674.345 449.564-51.952-77.929zM695.197 486.961l-674.345-449.564 51.952-77.926 674.345 449.56-51.952 77.929zM93.658-1.567v899.127h-93.659v-899.127h93.659z" />
<glyph unicode="&#xe91e;" glyph-name="face-sad" horiz-adv-x="1045" d="M521.961-63.998c-282.321 0-512.003 229.655-512.003 511.976 0 126.088 46.219 247.226 130.198 341.135 10.011 11.208 27.231 12.16 38.385 2.149 11.208-10.011 12.16-27.204 2.149-38.412-75.029-83.925-116.323-192.169-116.323-304.873 0-252.288 205.279-457.568 457.595-457.568 48.233 0 95.73 7.426 141.107 22.143 14.363 4.597 29.625-3.21 34.249-17.492s-3.184-29.625-17.464-34.25c-50.817-16.458-103.973-24.81-157.891-24.81zM885.288 98.566c-6.448 0-12.923 2.258-18.091 6.882-11.208 9.984-12.216 27.177-2.232 38.385 74.594 83.842 115.671 191.868 115.671 304.167 0 252.314-205.281 457.593-457.595 457.593-60.528 0-119.288-11.616-174.676-34.521-13.846-5.659-29.789 0.869-35.528 14.771-5.74 13.875 0.843 29.788 14.744 35.529 61.997 25.625 127.749 38.628 195.459 38.628 282.32 0 512.002-229.68 512.002-512 0-125.656-45.974-246.522-129.435-340.321-5.36-6.039-12.84-9.113-20.32-9.113zM268.522 849.5c0-15.996-13.030-29-29-29-16.023 0-29.027 13.003-29.027 29s13.003 28.972 29.027 28.972c15.968 0 29-12.976 29-28.972zM823.2 58.87c0-15.996-13.003-29-29-29-16.023 0-29.027 13.003-29.027 29s13.003 28.972 29.027 28.972c15.995 0 29-12.976 29-28.972zM346.203 501.134c-45.403 0-82.373 36.943-82.373 82.373s36.97 82.4 82.373 82.4c45.43 0 82.373-36.97 82.373-82.4s-36.943-82.373-82.373-82.373zM696.077 501.134c-45.403 0-82.373 36.943-82.373 82.373s36.97 82.4 82.373 82.4c45.43 0 82.373-36.97 82.373-82.4s-36.943-82.373-82.373-82.373zM293.168 159.794c-2.938 0-5.985 0.49-8.923 1.523-14.2 4.897-21.708 20.43-16.757 34.603 29.924 86.182 130.606 146.356 244.861 146.356h18.145c114.173 0 214.855-60.175 244.861-146.302 4.923-14.173-2.557-29.707-16.757-34.631-14.2-4.978-29.681 2.557-34.63 16.73-22.499 64.663-102.069 109.794-193.474 109.794h-18.145c-91.459 0-171.003-45.158-193.501-109.794-3.89-11.235-14.418-18.281-25.681-18.281z" />
<glyph unicode="&#xe91f;" glyph-name="menu1" horiz-adv-x="1104" d="M11.378 61.156v113.778h1080.889v-227.556h-1080.889zM11.378 448v113.778h1080.889v-227.556h-1080.889zM11.378 834.844v113.778h1080.889v-227.556h-1080.889z" />
<glyph unicode="&#xe920;" glyph-name="Search-icon" d="M819.057 52.433l-109.811 108.040-37.77-24.442c-98.156-63.518-251.49-79.71-366.928-38.748-307.331 109.054-395.855 494.802-166.244 724.413 229.585 229.585 616.36 140.797 724.193-166.244 40.91-116.487 24.907-268.902-38.527-366.928l-24.442-37.77 108.040-109.811c118.191-120.128 126.512-136.873 87.438-175.948s-55.82-30.753-175.948 87.438zM583.339 229.142c63.376 31.2 123.096 92.721 153.641 158.274 19.010 40.798 22.363 59.32 22.363 123.535 0 64.197-3.355 82.741-22.342 123.49-29.967 64.314-61.254 102.406-111.956 136.309-161.701 108.125-375.692 49.928-461.879-125.611-22.044-44.899-24.674-58.75-24.674-129.991 0-72.060 2.55-85.119 26.479-135.627 41.107-86.765 119.363-151.697 210.602-174.745 58.492-14.776 150.075-4.035 207.767 24.366z" />
<glyph unicode="&#xe921;" glyph-name="vivienda" d="M185.213-57.576c-29.278 11.75-31.919 32.515-31.919 250.912v202.544h-57.425c-48.81 0-59.848 1.906-73.581 12.709-12.818 10.082-16.156 17.968-16.156 38.159 0 25.327 1.173 26.624 240.835 266.285 235.659 235.659 241.355 240.835 265.034 240.835s29.374-5.175 265.034-240.835c239.661-239.661 240.835-240.959 240.835-266.285 0-20.192-3.339-28.077-16.156-38.159-13.733-10.802-24.771-12.709-73.581-12.709h-57.425v-153.293h-104.24v109.544c0 101.538 0.929 110.725 12.709 125.701 9.875 12.554 18.078 16.156 36.79 16.156 13.245 0 24.082 2.051 24.082 4.557s-73.792 78.387-163.982 168.623l-163.982 164.066-164.066-163.982c-90.236-90.19-164.066-166.070-164.066-168.623s10.837-4.641 24.082-4.641c18.713 0 26.915-3.602 36.79-16.156 12.297-15.633 12.709-22.981 12.709-226.874v-210.718h306.587v-104.24l-182.419 0.389c-100.331 0.214-188.75 2.929-196.488 6.035zM690.403 45.787l-72.807 72.997-26.761-11.471c-113.572-48.683-243.123 16.478-275.046 138.34-23.071 88.070 20.845 184.521 104.235 228.932 27.321 14.55 37.334 16.328 91.976 16.328s64.655-1.778 91.976-16.328c91.752-48.864 135.749-164.856 96.029-253.166l-13.658-30.366 150.333-150.695-33.364-33.784c-18.35-18.581-34.881-33.784-36.735-33.784s-36.134 32.849-76.178 72.997zM568.594 209.767c43.886 32.766 56.885 88.924 31.015 133.994-15.843 27.6-57.057 52.12-87.609 52.12-10.374 0-31.163-6.208-46.197-13.796-74.249-37.476-72.291-145.254 3.274-180.235 25.306-11.715 78.936-7.448 99.516 7.918z" />
<glyph unicode="&#xe922;" glyph-name="vehiculos" horiz-adv-x="1301" d="M214.685-45.137c-42.4 15.484-73.92 52.424-73.92 86.63 0 9.422-7.626 17.275-23.024 23.709-37.58 15.702-40.469 31.624-37.992 209.364 2.103 150.897 2.944 159.471 18.034 183.738 21.153 34.018 63.619 54.113 114.356 54.113h39.329l0.304 157.405c0.212 109.891 2.984 164.904 9.183 182.246 14.191 39.7 44.268 73.451 82.381 92.443l35.39 17.636h534.242l35.39-17.636c38.113-18.992 68.19-52.744 82.381-92.443 6.199-17.342 8.971-72.355 9.183-182.246l0.304-157.405h39.329c50.737 0 93.203-20.095 114.356-54.113 15.090-24.267 15.931-32.841 18.034-183.738 2.477-177.739-0.412-193.662-37.992-209.364-16.781-7.011-23.024-14.008-23.024-25.801 0-22.644-26.768-59.874-54.833-76.265-32.742-19.123-80.798-18.255-113.656 2.053-26.296 16.252-52.917 58.2-52.917 83.385 0 13.976-2.766 14.113-283.676 14.113s-283.676-0.138-283.676-14.113c0-24.144-26.195-66.873-49.947-81.473-31.465-19.341-66.164-23.694-97.538-12.236zM1095.576 287.551v114.162h-94.689c-87.697 0-95.872 1.111-110.703 15.044-12.002 11.275-16.013 22.62-16.013 45.288 0 22.978-4.126 34.37-17.177 47.421-77.701 77.701-344.593 77.701-422.294 0-12.877-12.877-17.177-24.505-17.177-46.451 0-20.534-4.492-34.055-15.044-45.288-14.318-15.241-19.658-16.013-110.703-16.013h-95.659v-228.324h899.459zM282.603 236.73c-33.933 18.56-40.937 53.791-16.795 84.483 11.061 14.062 20.439 18.23 41.011 18.23 57.26 0 77.42-74.601 27.181-100.58-23.089-11.94-32.735-12.34-51.397-2.133zM477.486 233.353c-2.537 2.537-4.613 66.364-4.613 141.838v137.225h117.622v-283.676h-54.198c-29.809 0-56.274 2.076-58.811 4.613zM701.197 370.578v141.838h110.703v-283.676h-110.703zM960.657 236.73c-33.933 18.56-40.937 53.791-16.795 84.483 11.061 14.062 20.439 18.23 41.011 18.23 57.26 0 77.42-74.601 27.181-100.58-23.089-11.94-32.735-12.34-51.397-2.133zM401.714 623.406c63.758 40.53 116.149 51.604 244.132 51.604s180.374-11.074 244.132-51.604c18.208-11.574 34.554-21.044 36.324-21.044 7.002 0 2.871 200.762-4.463 216.857-13.941 30.598-27.865 32.224-275.994 32.224s-262.052-1.626-275.994-32.224c-7.333-16.095-11.465-216.857-4.463-216.857 1.771 0 18.116 9.47 36.324 21.044zM47.36 491.341c-42.526 17.59-61.814 70.722-41.338 113.873 32.102 67.649 134.906 58.157 154.913-14.303 18.265-66.15-49.899-125.908-113.575-99.57zM1164.765 499.95c-30.278 20.544-43.607 56.196-34.008 90.961 20.007 72.46 122.812 81.953 154.913 14.303 36.366-76.636-50.998-152.699-120.905-105.264z" />
<glyph unicode="&#xe923;" glyph-name="hogar" horiz-adv-x="1126" d="M204.071-38.781c0 24.969-0.107 25.243-10.761 27.583-5.919 1.3-15.137 5.805-20.484 10.012-18.006 14.164-19.772 24.502-19.772 115.746 0 76.837-0.547 84.222-6.377 86.089-3.507 1.123-18.6 7.886-33.539 15.028-52.142 24.927-93.718 77.51-107.491 135.947-23.164 98.276 34.246 202.92 129.779 236.553 18.517 6.519 19.592 7.605 22.38 22.617 12.147 65.389 32.054 115.814 65.63 166.246 25.996 39.048 74.502 88.376 110.003 111.871 142.142 94.068 317.018 94.068 459.16 0 35.502-23.494 84.007-72.823 110.003-111.871 33.576-50.432 53.482-100.857 65.63-166.246 2.789-15.012 3.863-16.098 22.38-22.617 79.321-27.926 135.267-107.734 135.307-193.017 0.033-73.053-47.157-147.997-113.020-179.484-14.939-7.142-30.032-13.905-33.539-15.028-5.83-1.867-6.377-9.252-6.377-86.089 0-91.244-1.766-101.582-19.772-115.746-5.348-4.206-14.566-8.712-20.484-10.012-10.655-2.34-10.761-2.614-10.761-27.583v-25.219h-102.036v51.018h-513.822v-51.018h-102.036zM870.947 144.056c0 52.364-0.358 55.097-7.461 56.954-24.995 6.536-61.144 28.686-85.74 52.535l-26.652 25.843-39.376 5.614c-53.355 7.607-226.234 8.265-288.995 1.101l-45.548-5.199-28.082-26.751c-25.845-24.619-61.727-46.653-86.543-53.142-7.103-1.858-7.461-4.591-7.461-56.954v-55.003h615.858zM250.44 306.306c22.708 10.887 42.221 32.47 50.003 55.308 22.854 67.073-24.216 135.857-93.241 136.255-92.023 0.531-139.079-108.764-74.319-172.618 32.635-32.178 75.535-39.092 117.558-18.946zM964.394 304.717c61.744 28.895 77.917 108.147 32.401 158.772-63.225 70.321-176.866 27.026-176.866-67.382 0-74.21 77.037-122.945 144.465-91.39zM563.018 393.338c44.094 0 96.979-1.305 117.523-2.9l37.352-2.9v19.444c0 73.751 58.947 154.542 131.58 180.339 16.768 5.956 17.090 6.361 15.119 19.019-3.612 23.189-19.337 67.094-32.456 90.618-46.225 82.884-125.391 139.271-218.275 155.469-39.976 6.971-61.711 6.971-101.687 0-92.884-16.198-172.050-72.585-218.275-155.469-13.119-23.523-28.844-67.429-32.456-90.618-1.972-12.658-1.649-13.063 15.119-19.019 72.633-25.797 131.58-106.588 131.58-180.339v-19.444l37.352 2.9c20.544 1.595 73.429 2.9 117.523 2.9zM460.986 551.854l-36.301 36.437 65.298 65.602-65.294 65.598 34.473 34.617c18.96 19.039 36.182 34.617 38.27 34.617s17.665-13.941 34.615-30.979l30.818-30.979 31.123 30.979c17.118 17.039 32.763 30.979 34.767 30.979s19.157-15.578 38.117-34.617l34.473-34.617-65.294-65.598 31.81-31.958c17.496-17.577 31.81-33.598 31.81-35.602s-15.589-19.169-34.643-38.143l-34.643-34.499-67.276 67.276-65.824-65.55z" />
<glyph unicode="&#xe924;" glyph-name="empleo" horiz-adv-x="1190" d="M869.777-54.405c-7.933 5.384-76.508 59.486-152.387 120.227l-137.963 110.438h-154.725l-4.566-28.998c-24.787-157.415-225.133-207.729-321.604-80.765-51.213 67.4-47.181 159.011 9.996 227.11l16.727 19.922-60.554 101.007c-56.45 94.161-60.554 102.413-60.554 121.752 0 16.331 2.31 23.491 10.858 33.649 22.347 26.557-2.984 25.044 419.080 25.044h384.747l281.772 281.863 85.128-84.838-223.917-224.028v-295.563c0-326.19 1.138-311.869-26.112-328.485-18.841-11.488-47.613-10.761-65.924 1.665zM277.202 125.314c16.9 12.381 26.193 33.456 24.047 54.53-3.445 33.819-30.93 56.474-64.378 53.067-59.374-6.049-73.997-83.914-20.997-111.807 17.506-9.213 45.643-7.281 61.329 4.211zM845.733 256.023v133.657l-74.634-74.548c-41.049-41.001-74.163-75.805-73.587-77.341 1.544-4.119 141.465-115.407 145.112-115.417 1.71-0.004 3.109 60.137 3.109 133.649zM667.466 385.621l89.061 89.134h-293.52c-161.436 0-292.765-1.399-291.842-3.109s16.743-28.325 35.156-59.144l33.477-56.035 28.312-4.468c32.544-5.136 66.612-20.574 90.498-41.011l16.583-14.189 203.214-0.311zM124.372 713.071v60.177h240.681l-2.301-118.154-238.381-2.2zM485.053 713.071v60.177h240.681l-2.301-118.154-238.381-2.2zM302.64 895.548v60.113h240.453v-120.227h-240.453z" />
<glyph unicode="&#xe925;" glyph-name="aficiones" horiz-adv-x="1220" d="M201.589-54.38c-90.793 16.859-160.471 78.778-190.123 168.953-11.531 35.067-12.88 96.228-2.924 132.609 18.144 66.306 66.256 124.807 127.118 154.567 43.080 21.065 82.059 29.268 123.825 26.058 16.325-1.255 31.401-2.671 33.502-3.146s24.944 48.063 50.762 107.863c54.541 126.331 53.501 124.972 95.651 124.972h24.463l-61.796 92.767-55.64 0.126c-38.375 0.087-58.197 1.546-63.882 4.701-13.153 7.299-22.035 23.84-22.061 41.084-0.021 13.36 1.953 17.56 13.829 29.436l13.852 13.852 167.221-0.013c161.43-0.013 167.63-0.263 179.032-7.214 24.909-15.187 27.802-48.424 6.105-70.122l-11.85-11.85h-57.741c-31.758 0-57.206-1.401-56.552-3.114s14.034-22.554 29.733-46.315l28.544-43.201 318.652-0.136-1.53 13.38c-2.528 22.115-15.631 183.346-15.631 192.343v8.353h-77.967c-75.311 0-78.38 0.278-90.091 8.158-24.124 16.234-25.579 52.745-2.862 71.86l10.91 9.18h106.597c73.879 0 109.413-1.283 115.772-4.181 22.027-10.036 21.437-6.365 42.903-267.276 10.885-132.299 20.589-245.56 21.565-251.69 1.672-10.502 3.060-11.397 23.997-15.478 73.158-14.259 139.006-65.985 170.496-133.933 18.464-39.841 23.015-61.407 22.588-107.038-0.422-45.093-9.065-77.481-31.275-117.196-46.032-82.313-143.44-131.977-236.528-120.594-59.405 7.264-103.199 28.315-145.827 70.097-28.75 28.18-47.957 59.756-61.49 101.092-7.204 22.004-9.027 35.031-9.322 66.602-0.432 46.197 4.238 68.017 22.908 107.038 26.217 54.794 71.345 97.993 125.655 120.284 26.14 10.729 27.637 11.945 27.386 22.243-0.59 24.211-8.96 108.724-10.966 110.73-1.645 1.645-413.009-255.415-424.833-265.476-1.408-1.198 0.847-12.586 5.012-25.307 11.529-35.218 10.875-98.931-1.397-136.114-18.819-57.019-50.509-99.605-97.512-131.043-30.843-20.629-57.527-31.392-94.428-38.087-32.605-5.916-51.244-5.876-83.847 0.177zM286.367 70.968c21.856 7.597 44.907 25.644 57.938 45.362 11.991 18.144 23.247 52.222 23.139 70.055-0.127 21.084-3.834 20.192-57.243-13.766-41.947-26.671-53.568-32.475-65.021-32.475-25.782 0-45.375 18.974-45.375 43.943 0 7.47 9.348 34.34 23.192 66.663 12.755 29.782 23.192 54.992 23.192 56.023s-7.626 0.773-16.948-0.573c-71.22-10.284-120.050-80.889-102.784-148.619 18.435-72.316 89.813-110.977 159.91-86.613zM1017.795 70.968c52.134 18.12 88.568 79.87 78.044 132.272-5.647 28.117-17.027 50.088-34.984 67.54-14.067 13.672-43.562 31.54-46.769 28.333-0.761-0.761 0.672-28.902 3.185-62.536 4.238-56.725 4.115-61.995-1.703-72.799-16.38-30.415-61.007-31.695-78.402-2.249-3.611 6.114-7.094 25.44-9.396 52.144-2.012 23.336-4.579 50.857-5.705 61.156l-2.047 18.727-15.942-10.968c-34.377-23.652-56.264-76.429-48.249-116.341 15.647-77.91 88.551-120.797 161.969-95.279zM586.927 455.966c86.344 54.506 160.182 101.294 164.084 103.972 6.035 4.143-15.435 4.731-143.872 3.939l-150.966-0.931-74.713-174.399 20.671-18.568c11.49-10.321 22.256-17.357 24.239-15.841 1.962 1.5 74.213 47.323 160.557 101.829z" />
<glyph unicode="&#xe926;" glyph-name="electronica" horiz-adv-x="1226" d="M94.84-65.431c-33.213 5.678-62.332 27.945-76.414 58.433l-8.306 17.983v559.716l9.481 19.258c10.486 21.301 27.301 38.056 49.028 48.856l13.604 6.762 488.924 1.569v36.298c0 41.478 4.367 62.764 18.228 88.848 13.175 24.794 40.9 51.296 66.244 63.323 27.793 13.189 44.326 16.205 88.833 16.205 39.898 0 52.378 2.906 65.613 15.281 11.671 10.912 13.37 16.905 14.886 52.505l1.474 34.614h100.958l-0.174-38.941c-0.184-41.089-3.195-55.638-17.376-83.969-8.931-17.842-33.761-44.571-52.624-56.65-28.12-18.006-42.545-21.442-98.569-23.48-45.756-1.664-51.477-2.453-61.15-8.434-19.239-11.895-23.792-23.161-24.963-61.77l-1.026-33.83 489.528-1.569 13.604-6.762c21.727-10.8 38.541-27.555 49.028-48.856l9.481-19.258v-559.716l-8.38-18.148c-10.408-22.539-32.669-43.695-55.81-53.040l-16.576-6.694-522.096-0.409c-287.153-0.225-528.105 0.619-535.449 1.874zM1133.636 290.782v255.279h-1024v-510.558h1024zM418.278 137.903v50.479h406.715v-100.958h-406.715zM291.878 245.154c-16.099 7.933-24.663 22.020-25.76 42.368-1.225 22.739 6.533 37.264 25.242 47.26 49.679 26.543 99.675-37.394 61.112-78.152-4.262-4.504-11.254-10.021-15.538-12.259-10.417-5.442-33.229-5.046-45.056 0.782zM442.855 246.9c-33.672 19.071-32.333 71.572 2.253 88.315 45.381 21.969 90.050-22.7 68.081-68.081-12.079-24.952-45.188-34.476-70.335-20.234zM595.992 247.125c-28.076 16.995-33.28 54.023-10.95 77.905 31.816 34.028 87.073 11.051 87.073-36.207 0-36.976-44.056-61.109-76.122-41.699zM748.083 247.556c-27.038 16.207-32.010 54.108-10.163 77.474 31.301 33.478 87.179 11.325 87.025-34.502-0.133-39.728-42.634-63.489-76.863-42.973zM904.317 245.532c-25.714 16.468-33.563 40.059-21.884 65.777 22.165 48.809 95.21 33.425 95.392-20.090 0.101-29.705-17.62-48.577-47.172-50.236-13.722-0.77-19.62 0.249-26.335 4.549zM290.871 399.028c-17.683 9.341-24.029 21.128-24.029 44.633 0 23.771 6.452 35.493 24.646 44.775 22.517 11.487 47.877 5.409 64.568-15.477 7.783-9.739 8.859-13.296 8.859-29.298s-1.076-19.56-8.859-29.298c-16.643-20.825-43.037-27.034-65.185-15.334zM443.113 400.004c-33.199 20.096-32.913 68.889 0.514 87.677 33.473 18.813 75.608-5.875 75.608-44.3 0-38.142-43.666-63.023-76.122-43.377zM597.002 399.824c-15.253 8.066-25.845 26.032-25.845 43.837 0 51.055 70.593 69.493 94.315 24.634 18.186-34.39-5.58-75.113-43.837-75.113-7.043 0-17.307 2.768-24.634 6.642zM754.323 397.271c-33.047 14.751-40.428 58.327-14.057 82.984 32.409 30.303 84.727 7.706 84.727-36.594 0-36.152-37.888-61.023-70.67-46.39zM905.965 398.234c-5.44 2.774-13.877 10.032-18.749 16.128-7.783 9.739-8.859 13.296-8.859 29.298s1.076 19.56 8.859 29.298c16.691 20.886 42.051 26.964 64.568 15.477 18.194-9.282 24.646-21.004 24.646-44.775 0-16.536-1.219-21.901-6.733-29.632-13.647-19.133-42.946-26.394-63.732-15.795z" />
<glyph unicode="&#xe927;" glyph-name="correo-web" d="M58.642 123.159c-10.335 4.785-24.493 14.78-31.461 22.212-27.636 29.472-27.272 25.428-27.159 301.106 0.096 235.293 0.698 253.972 8.758 271.716 12.192 26.842 43.325 52.087 71.756 58.184 32.030 6.87 830.874 6.87 862.905 0 28.431-6.098 59.564-31.341 71.756-58.184 8.060-17.744 8.662-36.423 8.758-271.716 0.113-275.678 0.478-271.634-27.159-301.106-6.969-7.431-21.126-17.426-31.461-22.212-17.863-8.271-40.269-8.7-453.346-8.7s-435.482 0.43-453.346 8.7zM920.702 412.567c0 109.814-1.050 199.659-2.333 199.659s-89.382-54.388-195.775-120.864c-161.128-100.673-196.309-120.864-210.608-120.864s-49.481 20.19-210.608 120.864c-106.393 66.475-194.492 120.864-195.775 120.864s-2.333-89.846-2.333-199.659v-199.659h817.431zM667.996 578.168l156.049 97.48-156.028 1.238c-85.816 0.681-226.242 0.681-312.058 0l-156.029-1.238 154.855-97.169c85.17-53.442 155.374-97.309 156.010-97.48s71.378 43.554 157.203 97.169z" />
<glyph unicode="&#xe928;" glyph-name="time-view" d="M891.999 4.694l-69.198 69.198-25.087-11.74c-27.9-13.056-69.066-22.972-95.367-22.972-78.18 0-159.157 49.898-193.184 119.041-23.921 48.607-30.103 93.761-19.653 143.537 17.745 84.519 84.213 150.987 168.732 168.732 49.776 10.451 94.931 4.268 143.537-19.653 69.143-34.027 119.041-115.004 119.041-193.184 0-26.295-9.915-67.465-22.964-95.35l-11.732-25.070 140.169-140.322-30.527-30.707c-16.79-16.889-31.437-30.707-32.548-30.707s-33.16 31.139-71.219 69.198zM756.817 139.664c27.248 12.474 50.884 36.064 63.854 63.729 8.488 18.105 10.155 27.012 10.155 54.26 0 39.151-10.784 66.394-36.434 92.045s-52.894 36.434-92.045 36.434c-27.248 0-36.155-1.667-54.26-10.155-107.107-50.216-97.19-206.829 15.383-242.941 26.223-8.412 66.787-5.532 93.347 6.628zM349.023 173.42c-127.996 14.95-243.886 97.645-303.477 216.548-124.731 248.88 49.307 547.537 328.89 564.392 210.905 12.715 395.495-147.925 413.867-360.168l2.573-29.723h-87.428l-2.426 25.888c-14.668 156.53-146.753 277.094-303.575 277.094-145.088 0-269.794-101.166-298.823-242.415-36.543-177.807 90.295-349.124 271.018-366.058l25.888-2.426v-87.108l-10.547 0.504c-5.801 0.277-21.983 1.84-35.96 3.472zM427.266 490.654l-73.733 48.887-0.19 239.7h88.21l0.156-193.678 52.138-34.392c28.676-18.915 52.924-36.44 53.884-38.944 1.714-4.466-39.917-70.497-44.431-70.473-1.265 0.008-35.48 22.011-76.033 48.899z" />
<glyph unicode="&#xe929;" glyph-name="content-book-1" horiz-adv-x="1207" d="M583.267-57.012c-6.060 2.641-63.155 43.667-126.877 91.168l-115.858 86.367-151.066 1.031c-144.503 0.986-151.491 1.349-160.85 8.345-5.381 4.023-13.161 13.074-17.287 20.114-7.418 12.656-7.504 16.628-7.587 352.091l-0.084 339.291 118.857-2.010 1.871-601.6h125.912c71.946 0 129.886-1.511 135.184-3.525 5.099-1.939 55.371-38.145 111.714-80.457s104.148-76.932 106.233-76.932c2.085 0 49.89 34.619 106.233 76.932s106.615 78.518 111.714 80.457c5.298 2.014 63.238 3.525 135.184 3.525h125.912l1.871 601.6 118.857 2.010-0.084-339.291c-0.083-335.463-0.169-339.435-7.587-352.091-4.127-7.040-11.906-16.091-17.287-20.114-9.359-6.997-16.347-7.359-160.85-8.345l-151.066-1.031-115.882-86.385c-63.735-47.512-121.188-88.602-127.674-91.312-14.588-6.095-25.245-6.052-39.503 0.161zM581.486 183.316c-5.029 1.969-34.651 28.969-65.829 59.999l-56.686 56.418-119.51 1.026c-135.696 1.165-132.121 0.387-148.454 32.326l-8.307 16.243 1.984 571.087 10.246 13.432c18.87 24.737 16.536 24.395 166.706 24.395 86.185 0 138.947-1.402 145.425-3.866 5.592-2.126 29.562-23.021 53.267-46.434l43.099-42.568 43.099 42.568c23.705 23.413 47.675 44.308 53.267 46.434 6.479 2.463 59.24 3.866 145.425 3.866 150.17 0 147.835 0.342 166.706-24.395l10.246-13.432 1.984-571.087-8.307-16.243c-16.333-31.939-12.758-31.161-148.454-32.326l-119.51-1.026-56.686-56.395c-31.177-31.017-61.319-58.121-66.981-60.231-12.567-4.682-30.469-4.595-42.733 0.209zM648.964 369.054c33.888 33.452 47.443 44.427 58.693 47.522 8.807 2.423 50.648 4.033 105.143 4.046l90.514 0.022v420.571h-151.485l-56.829-56.429c-31.256-31.036-61.462-58.19-67.124-60.343-13.184-5.012-35.711-5.012-48.895 0-5.662 2.153-35.868 29.307-67.124 60.343l-56.829 56.429h-151.485v-420.571l90.514-0.022c54.336-0.011 96.361-1.625 105.143-4.036 11.28-3.096 24.673-13.964 58.514-47.483 24.137-23.907 44.628-43.486 45.535-43.507s21.479 19.535 45.714 43.458z" />
<glyph unicode="&#xe92a;" glyph-name="home" horiz-adv-x="1075" d="M169.766 154.309v214.51l-67.748 1.888c-61.611 1.717-68.914 3.055-80.619 14.775-9.558 9.57-12.871 19.413-12.871 38.241v25.355l509.432 509.065h50.396l509.432-509.065v-25.355c0-18.828-3.313-28.671-12.871-38.241-11.705-11.719-19.008-13.057-80.619-14.775l-67.748-1.888v-429.019h-265.901v271.558h-214.983v-271.558h-265.901z" />
<glyph unicode="&#xe92b;" glyph-name="id-card-3" horiz-adv-x="1275" d="M75.653-45.531c-30.404 15.076-55.262 45.696-64.278 79.18-4.888 18.154-6.707 162.731-5.408 429.833 2.187 449.434-0.343 426.696 51.912 466.553l25.588 19.517h1116.727l25.588-19.517c52.578-40.103 49.954-14.782 49.954-482.034 0-467.249 2.624-441.929-49.951-482.034l-25.585-19.517-550.858-1.65c-496.592-1.488-553.107-0.535-573.688 9.67zM1153.829 448v379.646h-1017.034v-759.293h1017.034zM264.311 228.095c11.151 94.151 81.574 153.26 182.971 153.575 61.501 0.191 105.941-14.568 138.201-45.898 33.106-32.152 46.256-59.13 50.939-104.501l3.873-37.529h-380.053zM770.7 256.435v62.694h250.776v-125.388h-250.776zM770.7 448v66.177h250.776v-132.354h-250.776zM391.054 464.514c-63.822 39.638-83.079 103.81-50.503 168.294 34.254 67.806 117.036 89.292 179.697 46.642 37.112-25.261 50.701-49.217 54.031-95.253 2.582-35.698 0.373-46.125-15.523-73.248-11.712-19.985-28.577-36.749-45.819-45.545-35.58-18.152-93.408-18.573-121.882-0.889z" />
<glyph unicode="&#xe92c;" glyph-name="email-check" horiz-adv-x="1127" d="M61.502-54.495c-10.334 4.324-27.244 17.26-37.578 28.747-17.805 19.79-18.789 34.109-18.789 273.336v252.452l52.097 52.097h713.128l52.097-52.097v-506.449l-52.077-52.097-345.044-1.925c-189.774-1.059-353.499 1.613-363.833 5.937zM723.814 218.631c0 98.172-2.423 178.495-5.385 178.495s-67.356-44.389-143.099-98.642c-88.116-63.116-146.293-98.642-161.535-98.642s-73.418 35.526-161.535 98.642c-75.743 54.253-140.137 98.642-143.099 98.642s-5.385-80.323-5.385-178.495v-178.495h620.037zM515.19 383.035l99.269 70.459h-401.204l97.922-70.129c53.857-38.571 99.457-70.277 101.333-70.459s48.082 31.376 102.68 70.129zM728.501 688.366l-93.602 93.955 70.011 70.011 122.369-121.281 220.645 219.815 75.156-64.089-145.501-146.182c-80.026-80.4-147.745-146.182-150.488-146.182s-47.108 42.28-98.589 93.955z" />
<glyph unicode="&#xe92d;" glyph-name="font-size" horiz-adv-x="1222" d="M0-5.774c0 47.371 1.408 49.548 32.035 49.548h32.035l152.395 454.194c151.208 450.658 152.641 454.222 184.016 457.807 17.392 1.987 36.31-1.075 42.041-6.806s66.008-210.505 133.948-455.054c122.264-440.083 123.834-444.67 153.4-448.119 27.473-3.204 29.872-7.404 29.872-52.301v-48.817h-253.247v99.097h44.253c49.247 0 48.363-5.504 16.481 102.572l-13.591 46.073-331.211 6.067-23.127-68.483c-12.72-37.666-23.127-72.476-23.127-77.356s17.342-8.873 38.538-8.873c38.334 0 38.538-0.262 38.538-49.548v-49.548h-253.247zM517.505 311.101c0 17.757-107.030 404.922-113.814 411.707-5.549 5.549-139.433-390.085-139.433-412.030 0-10.203 32.703-13.756 126.624-13.756 95.471 0 126.624 3.464 126.624 14.079zM968.946-5.774v49.548h39.716c33.437 0 38.49 3.046 31.963 19.269-4.264 10.598-17.869 45.282-30.233 77.075l-22.48 57.806h-224.834l-23.838 90.839c-13.111 49.961-23.771 98.103-23.689 106.982 0.185 20.099 98.429 276.11 113.171 294.911 14.242 18.163 57.275 17.593 72.675-0.963 6.722-8.099 66.372-155.506 132.556-327.57 119.721-311.251 120.507-312.861 154.288-316.294 32.311-3.283 33.954-5.814 33.954-52.301v-48.851h-253.247zM942.188 316.291c-37.87 102.874-66.552 174.915-72.47 182.022-7.538 9.052-76.943-158.255-76.943-185.479 0-12.259 17.584-15.812 78.253-15.812 69.889 0 77.495 2.060 71.16 19.269z" />
<glyph unicode="&#xe92e;" glyph-name="heart" horiz-adv-x="1164" d="M503.756-16.9c-146.052 101.835-300.078 247.836-378.463 358.743-112.674 159.423-139.413 312.814-76.728 440.146 55.091 111.906 155.759 173.549 285.524 174.838 62.061 0.616 76.776-2.544 126.906-27.259 31.188-15.376 72.167-43.821 91.065-63.211l34.36-35.254 42.501 39.754c65.541 61.306 127.46 86.271 212.608 85.723 129.303-0.832 230.188-62.561 285.34-174.591 80.761-164.049 16.31-359.458-188.484-571.465-119.080-123.274-311.184-272.624-350.667-272.624-10.524 0-48.307 20.34-83.961 45.2zM755.174 210.229c196.627 170.676 296.98 342.402 273.509 468.034-16.399 87.782-95.751 152.355-187.222 152.355-91.712 0-188.103-94.243-188.103-183.912 0-33.485-34.197-69.9-65.641-69.9s-65.641 36.416-65.641 69.9c0 89.668-96.391 183.912-188.103 183.912-125.096 0-209.929-108.212-186.385-237.749 23.193-127.603 170.262-312.33 365.146-458.644l73.803-55.409 47.188 33.476c25.953 18.412 80.606 62.483 121.45 97.937z" />
<glyph unicode="&#xe92f;" glyph-name="share" horiz-adv-x="1203" d="M331.112-27.464c-66.504 17.43-121.717 39.518-131.2 52.487-10.364 14.173-16.373 63.775-16.373 135.145 0 104.22-1.937 112.754-25.6 112.754-14.222 0-25.6-8.533-25.6-19.2 0-14.507-15.644-19.2-64-19.2h-64v473.6h64c50.408 0 64-4.395 64-20.693 0-13.402 7.893-18.633 22.4-14.846 12.32 3.216 225.44 50.901 473.6 105.967l451.2 100.12v36.326c0 35.070 2.219 36.326 64.156 36.326h64.156l-6.712-953.6h-57.6c-53.309 0-57.902 2.62-61.647 35.169-2.736 23.774-13.104 37.282-32 41.692-15.374 3.588-102.833 23.534-194.353 44.324l-166.4 37.8-25.6-29.205c-14.080-16.063-52.954-64.794-86.387-108.293-70.75-92.051-72-92.288-246.040-46.674zM504.195 120.15c23.032 29.081 36.209 56.601 29.876 62.395-10.174 9.308-183.635 51.976-211.302 51.976-6.176 0-11.23-30.862-11.23-68.581v-68.581l54.4-13.081c87.030-20.928 94.883-18.89 138.256 35.873zM1079.539 476.222v280.1l-112-24.714c-61.6-13.593-273.28-60.562-470.4-104.377l-358.4-79.663-3.839-73.322c-2.111-40.327-2.111-73.484 0-73.681s205.439-45.796 451.839-101.331c246.4-55.535 458.080-101.453 470.4-102.041 20.683-0.987 22.4 20.395 22.4 279.031z" />
<glyph unicode="&#xe930;" glyph-name="calendar-3" d="M63.092-48.581c-57.551 29.573-60.821 52.138-61.013 420.996-0.224 430.053-0.534 429.109 141.008 429.109h66.051v-48.762c0-40.635 4.063-48.762 24.381-48.762 22.833 0 24.381 8.127 24.381 128v128h96.36l7.259-152.381 359.619-6.747v-48.436c0-40.309 4.091-48.436 24.381-48.436 22.833 0 24.381 8.127 24.381 128v128h97.524v-158.476h48.762c53.281 0 91.906-28.219 103.862-75.88 3.827-15.256 5.338-185.309 3.358-377.895-3.556-345.79-3.947-350.502-31.355-377.905-27.717-27.711-28.341-27.753-463.238-30.855-333.967-2.382-442.532 0.515-465.72 12.431zM916.186 326.095v280.381h-804.571v-560.762h804.571zM160.376 448v97.524h207.238v-195.048h-207.238zM416.376 448v97.524h195.048v-195.048h-195.048zM672.376 448v97.524h195.048v-195.048h-195.048z" />
<glyph unicode="&#xe931;" glyph-name="documents" horiz-adv-x="818" d="M61.253-50.75c-22.025 10.257-42.395 31.117-51.377 52.616-8.938 21.391-8.938 870.878 0 892.269 8.983 21.499 29.352 42.359 51.377 52.616l19.797 9.219 502.166 0.077 231.239-231.339v-354.334c0-390.029 1.393-367.605-24.673-397.293-7.056-8.036-21.738-18.76-32.626-23.831l-19.797-9.219h-656.309zM715.614 347.181v304.432h-205.591v201.637h-407.228v-810.502h612.819zM205.591 244.386v51.398h407.228v-102.795h-407.228zM205.591 448v49.421h304.432v-98.842h-304.432z" />
<glyph unicode="&#xe932;" glyph-name="close" horiz-adv-x="1033" d="M45.716-20.959l-40.686 41.456 429.111 429.402-429.375 429.667 82.286 82.286 429.377-429.668 424.975 424.687 82.911-81.371-425.31-425.599 425.31-425.599-82.96-81.419-424.687 424.687-430.264-429.984z" />
<glyph unicode="&#xe933;" glyph-name="arrow-full-down" horiz-adv-x="2048" d="M0.086 959.926h2047.829l-1023.93-1023.892-1023.901 1023.892z" />
<glyph unicode="&#xe934;" glyph-name="bg_document" horiz-adv-x="931" d="M291.386 941.886c-233.077-0.862-220.182-14.718-220.182-181.227v-132.977h0.386v-573.182c-0.273-5.408-0.386-11.528-0.386-19.432 0-35.512 6.835-51.078 30.659-69.818 29.457-23.17 44.243-24.114 376.614-24.114s347.157 0.943 376.614 24.114c23.824 18.74 30.659 34.307 30.659 69.818 0 9.437-0.141 16.556-0.591 22.5v570.114h0.591v55.523c0 54.321-2.192 57.701-102.045 157.091l-102.045 101.568h-274.568c-44.091 0-82.408 0.146-115.705 0.023zM164.295 848.773h453.818v-174.545h87.273c67.611 0 83.283-1.562 86.477-15.045v-607.523c0-0.837 0.255-1.58 0.614-2.273-10.781-14.581-53.993-15.159-314-15.159-257.683 0-302.428 0.57-313.705 14.773 0.018 0.174 0.114 0.321 0.114 0.5v623.432c0 0.815-0.249 1.571-0.591 2.25v173.591z" />
<glyph unicode="&#xe935;" glyph-name="content-book-4" horiz-adv-x="832" d="M37.778-57.191c-13.843 6.356-20.045 12.845-26.073 27.271-3.966 9.49-4.468 64.016-4.41 478.491 0.061 447.687 0.293 468.28 5.408 479.418 6.356 13.843 12.845 20.045 27.271 26.073 9.445 3.946 53.858 4.474 376.028 4.474s366.583-0.528 376.028-4.474c14.427-6.028 20.916-12.232 27.271-26.073 5.115-11.138 5.347-31.731 5.408-479.418 0.058-414.474-0.446-469.001-4.41-478.491-6.028-14.427-12.232-20.916-26.073-27.271-11.098-5.095-28.657-5.344-378.223-5.344s-367.126 0.249-378.223 5.344zM210.888 447.939v408.771h-101.829v-817.543h101.829zM722.943 447.939v408.771h-410.226v-817.543h410.226zM365.086 677.783v77.099h305.488v-154.199h-305.488z" />
<glyph unicode="&#xe936;" glyph-name="download-computer" horiz-adv-x="724" d="M210.25 62.905v38.34h113.002v36.322l-120.064 0.089c-108.093 0.080-121.674 0.832-136.208 7.539-19.537 9.017-31.833 21.793-40.165 41.736-5.331 12.758-6.233 41.74-6.158 197.698 0.082 169.041 0.648 183.959 7.539 198.892 14.37 31.136 41.040 46.411 81.030 46.411h24.344v-76.68h-36.322v-189.682h528.687v189.682h-36.322v76.68h24.344c39.99 0 66.66-15.276 81.030-46.411 6.892-14.932 7.457-29.851 7.539-198.892 0.076-155.958-0.827-184.94-6.158-197.698-8.333-19.943-20.628-32.719-40.165-41.736-14.534-6.708-28.114-7.459-136.208-7.539l-120.064-0.089v-36.322h113.002v-76.68h-302.683zM625.935 252.586v38.34h-528.687v-76.68h528.687zM272.858 553.199l-88.689 88.757 52.131 52.599 86.952-86.682v324.743h76.68v-324.743l86.952 86.682 52.154-52.622-177.492-177.492z" />
<glyph unicode="&#xe937;" glyph-name="arrowup" horiz-adv-x="1792" d="M123.442-10.841c-26.717-26.717-70.032-26.717-96.748 0s-26.717 70.032 0 96.748l96.748-96.748zM896.001 858.467l-48.373 48.373c26.716 26.718 70.032 26.718 96.747 0l-48.373-48.373zM1765.315 85.907c26.708-26.717 26.708-70.032 0-96.748-26.721-26.717-70.039-26.717-96.761 0l96.761 96.748zM26.694 85.907l820.933 820.933 96.747-96.747-820.933-820.933-96.748 96.748zM944.374 906.84l820.94-820.933-96.761-96.748-820.927 820.933 96.747 96.747z" />
<glyph unicode="&#xe938;" glyph-name="arrowfullleft" d="M767.974 959.978v-1023.957l-511.967 511.986 511.967 511.972z" />
<glyph unicode="&#xe939;" glyph-name="arrowfullright" d="M256.026 959.978v-1023.957l511.967 511.986-511.967 511.972z" />
<glyph unicode="&#xe93a;" glyph-name="arrowshaftup" horiz-adv-x="796" d="M367.968-33.969c0-16.585 13.446-30.031 30.031-30.031s30.031 13.446 30.031 30.031h-60.063zM428.031 927.037c0 16.583-13.446 30.031-30.031 30.031s-30.031-13.448-30.031-30.031h60.063zM428.031-33.969v961.005h-60.063v-961.005h60.063zM16.385 587.895c-11.725-11.728-11.725-30.743 0-42.47 11.73-11.728 30.746-11.728 42.477 0l-42.477 42.47zM398 927.037l21.235 21.235c-11.728 11.729-30.743 11.729-42.47 0l21.235-21.235zM737.141 545.425c11.728-11.728 30.743-11.728 42.47 0s11.728 30.743 0 42.47l-42.47-42.47zM58.86 545.425l360.373 360.378-42.47 42.47-360.38-360.377 42.477-42.47zM376.764 905.801l360.377-360.378 42.47 42.47-360.378 360.377-42.47-42.47z" />
<glyph unicode="&#xe93b;" glyph-name="arrowshaftleft" horiz-adv-x="796" d="M773.722 471.411c12.929 0 23.411-10.482 23.411-23.411s-10.482-23.411-23.411-23.411v46.823zM24.564 424.589c-12.927 0-23.411 10.482-23.411 23.411s10.483 23.411 23.411 23.411v-46.823zM773.722 424.589h-749.156v46.823h749.156v-46.823zM288.944 745.49c9.142 9.14 23.966 9.14 33.108 0 9.142-9.144 9.142-23.968 0-33.113l-33.108 33.113zM24.564 448l-16.554-16.554c-9.143 9.142-9.143 23.966 0 33.108l16.554-16.554zM322.052 183.621c9.142-9.142 9.142-23.966 0-33.108s-23.966-9.142-33.108 0l33.108 33.108zM322.052 712.378l-280.935-280.931-33.108 33.108 280.934 280.936 33.108-33.113zM41.119 464.555l280.935-280.934-33.108-33.108-280.934 280.935 33.108 33.108z" />
<glyph unicode="&#xe93c;" glyph-name="arrowshaftright" horiz-adv-x="796" d="M22.278 471.411c-12.929 0-23.411-10.482-23.411-23.411s10.482-23.411 23.411-23.411v46.823zM771.436 424.589c12.927 0 23.411 10.482 23.411 23.411s-10.483 23.411-23.411 23.411v-46.823zM22.278 424.589h749.156v46.823h-749.156v-46.823zM507.056 745.49c-9.142 9.14-23.966 9.14-33.108 0-9.142-9.144-9.142-23.968 0-33.113l33.108 33.113zM771.436 448l16.554-16.554c9.143 9.142 9.143 23.966 0 33.108l-16.554-16.554zM473.948 183.621c-9.142-9.142-9.142-23.966 0-33.108s23.966-9.142 33.108 0l-33.108 33.108zM473.948 712.378l280.935-280.931 33.108 33.108-280.934 280.936-33.108-33.113zM754.881 464.555l-280.935-280.934 33.108-33.108 280.934 280.935-33.108 33.108z" />
<glyph unicode="&#xe93d;" glyph-name="form-error" d="M421.682-57.982c-136.032 26.666-258.145 105.819-333.589 216.227-27.891 40.818-63.504 119.863-76.431 169.634-15.146 58.322-15.146 182.521 0 240.842 31.243 120.306 111.304 235.854 210.28 303.483 40.818 27.891 119.863 63.504 169.634 76.431 58.322 15.146 182.521 15.146 240.842 0 120.306-31.243 235.854-111.304 303.483-210.28 27.891-40.818 63.504-119.863 76.431-169.634 15.146-58.322 15.146-182.521 0-240.842-31.243-120.306-111.304-235.854-210.28-303.483-40.128-27.419-119.721-63.457-166.623-75.44-53.978-13.793-161.048-17.266-213.748-6.937zM617.366 50.658c112.024 30.122 211.706 112.112 260.666 214.407 34.611 72.317 43.129 108.491 43.129 183.236s-8.514 110.92-43.129 183.236c-22.611 47.243-35.492 65.104-76.594 106.205s-58.962 53.982-106.205 76.594c-72.317 34.611-108.491 43.129-183.236 43.129s-110.92-8.514-183.236-43.129c-47.243-22.611-65.104-35.492-106.205-76.594s-53.982-58.962-76.594-106.205c-34.611-72.317-43.129-108.491-43.129-183.236s8.514-110.92 43.129-183.236c22.611-47.243 35.492-65.104 76.594-106.205 41-41 59.077-54.056 106.205-76.697 31.237-15.008 71.697-30.186 89.908-33.725s38.537-7.691 45.157-9.22c21.586-4.986 119.613 2.319 153.537 11.442zM475.067 191.036c-33.003 26.734-35.387 65.739-5.822 95.3 15.905 15.905 25.442 20.474 42.749 20.474 29.725 0 63.221-31.792 63.221-60.004 0-39.229-25.741-66.171-63.221-66.171-13.851 0-29.542 4.42-36.928 10.403zM460.82 577.754v180.633h102.36v-361.265h-102.36z" />
<glyph unicode="&#xe93e;" glyph-name="form-ok" d="M404.99-53.787c-56.847 12.293-81.004 21.21-134.354 49.591-129.95 69.129-218.152 182.005-258.8 331.197-15.72 57.698-15.72 184.593 0 242.291 32.416 118.978 97.912 218.568 189.288 287.82 44.46 33.694 127.888 74.529 180.343 88.269 63.531 16.642 168.074 19.13 233.672 5.562 198.995-41.161 353.775-194.551 399.219-395.636 12.801-56.647 12.801-157.673 0-214.321-45.184-199.93-200.416-354.567-396.566-395.045-62.698-12.938-152.246-12.824-212.803 0.271zM608.857 49.106c75.332 18.227 153.437 64.835 206.387 123.161 39.495 43.504 66.43 89.988 87.161 150.423 16.161 47.113 17.034 53.546 17.034 125.455s-0.873 78.343-17.034 125.455c-39.327 114.651-114.67 199.057-221.201 247.805-59.19 27.086-102.553 36.155-171.666 35.904-104.801-0.381-198.327-36.399-272.268-104.858-89.669-83.020-135.282-185.622-135.282-304.306 0-86.7 24.336-164.92 72.768-233.883 98.046-139.613 269.723-204.928 434.102-165.157zM363.177 299.161l-101.851 101.951 91.325 91.325 49.848-49.59c30.453-30.295 51.312-47.375 53.613-43.898 47.31 71.501 208.698 289.36 213.103 287.669 12.201-4.682 96.46-67.122 96.46-71.481 0-5.406-291.814-414.72-297.014-416.609-1.997-0.726-49.466 44.558-105.484 100.632z" />
<glyph unicode="&#xe93f;" glyph-name="add" d="M512 960c-282.785 0-512-229.215-512-512s229.215-512 512-512 512 229.249 512 512-229.215 512-512 512zM512 0c-247.425 0-448 200.575-448 448s200.575 448 448 448c247.425 0 448-200.575 448-448s-200.575-448-448-448zM704 480h-160v160c0 17.664-14.336 32-32 32s-32-14.336-32-32v-160h-160c-17.664 0-32-14.336-32-32s14.336-32 32-32h160v-160c0-17.664 14.336-32 32-32s32 14.336 32 32v160h160c17.664 0 32 14.336 32 32s-14.336 32-32 32z" />
<glyph unicode="&#xe940;" glyph-name="layers" d="M844.069 551.056l179.931 102.804-511.991 290.767-512.009-290.767 179.931-102.804-179.931-102.171 179.931-102.804-179.931-102.171 512.009-292.518 511.991 292.518-179.931 102.171 179.931 102.804-179.931 102.171zM512.009 901.768l436.69-248.001-436.69-249.511-436.709 249.511 436.709 248.001zM217.553 529.571l294.456-168.229 294.456 168.229 142.234-80.779-436.69-249.511-436.709 249.511 142.253 80.779zM948.7 243.817l-436.69-249.511-436.709 249.511 142.253 80.779 294.456-168.229 294.456 168.229 142.234-80.779z" />
<glyph unicode="&#xe941;" glyph-name="graph" d="M1006.933 12.8v665.6h-204.8v-665.6h-51.2v529.067h-204.8v-529.067h-51.2v392.533h-204.8v-392.533h-51.2v238.933h-204.8v-238.933h-17.067c-9.421 0-17.067-7.629-17.067-17.067s7.646-17.067 17.067-17.067h989.867c9.421 0 17.067 7.629 17.067 17.067s-7.646 17.067-17.067 17.067zM68.267 12.8v204.8h136.533v-204.8h-136.533zM324.267 12.8v358.4h136.533v-358.4h-136.533zM580.267 12.8v494.933h136.533v-494.933h-136.533zM836.267 12.8v631.467h136.533v-631.467h-136.533zM137.045 485.035c2.884 0 5.837 0.734 8.516 2.287l618.991 357.376-38.741-85.163c-3.908-8.585-0.119-18.705 8.465-22.596 2.287-1.058 4.693-1.536 7.066-1.536 6.485 0 12.681 3.721 15.548 10.001l60.791 133.632c0.188 0.427 0.154 0.887 0.307 1.331 0.324 0.905 0.58 1.775 0.751 2.731 0.085 0.478 0.358 0.87 0.393 1.365 0.017 0.205-0.068 0.375-0.051 0.58 0.034 0.649-0.034 1.246-0.068 1.894-0.051 0.939-0.205 1.826-0.41 2.765-0.137 0.649-0.171 1.314-0.393 1.946-0.205 0.614-0.563 1.126-0.836 1.724-0.222 0.393-0.222 0.853-0.461 1.263s-0.649 0.649-0.922 1.041c-0.358 0.529-0.631 1.092-1.058 1.57-0.444 0.512-1.007 0.87-1.519 1.331-0.7 0.631-1.399 1.212-2.185 1.724-0.529 0.341-1.007 0.717-1.587 1.007-0.188 0.085-0.29 0.256-0.478 0.341-0.427 0.188-0.887 0.154-1.314 0.307-0.939 0.341-1.86 0.58-2.833 0.751-0.444 0.085-0.802 0.341-1.263 0.375l-146.125 14.165c-9.472 0.956-17.732-5.973-18.637-15.326-0.922-9.387 5.956-17.732 15.326-18.637l93.116-9.028-618.94-357.376c-8.175-4.71-10.957-15.155-6.246-23.313 3.157-5.478 8.892-8.533 14.797-8.533z" />
<glyph unicode="&#xe942;" glyph-name="informacion" d="M562 203c0-27.614-22.386-50-50-50s-50 22.386-50 50c0 27.614 22.386 50 50 50s50-22.386 50-50zM512 960c-282.968 0-512-228.994-512-512 0-282.968 228.994-512 512-512 282.968 0 512 228.994 512 512 0 282.968-228.994 512-512 512zM512 16c-238.754 0-432 193.214-432 432 0 238.754 193.214 432 432 432 238.754 0 432-193.214 432-432 0-238.754-193.214-432-432-432zM512 703c-88.224 0-160-71.776-160-160 0-22.092 17.908-40 40-40s40 17.908 40 40c0 44.112 35.888 80 80 80s80-35.888 80-80c0-44.112-35.888-80-80-80-22.092 0-40-17.908-40-40v-100c0-22.092 17.908-40 40-40s40 17.908 40 40v65.062c68.932 17.806 120 80.52 120 154.938 0 88.224-71.776 160-160 160z" />
<glyph unicode="&#xe943;" glyph-name="exchange" d="M82.038 513.44c5.33-2.132 11.511-2.132 16.84 0.426l166.477 75.672c10.657 5.116 15.134 17.905 10.018 28.562-4.902 10.232-17.052 14.922-27.497 10.232l-116.598-53.076c55.634 166.477 210.6 277.745 389.013 277.745 186.94 0 350.431-124.911 397.538-303.75 2.984-11.297 14.708-18.119 26.005-15.134 11.297 2.984 18.119 14.708 15.134 26.005-52.011 197.383-232.342 335.509-438.678 335.509-196.744 0-367.911-122.779-429.726-306.521l-49.026 122.565c-3.623 11.085-15.773 17.266-26.858 13.643s-17.266-15.773-13.643-26.858c0.214-0.853 0.639-1.705 1.065-2.558l67.998-170.525c2.132-5.33 6.395-9.806 11.938-11.936zM1022.703 198.819c-0.214 0.426-0.426 0.853-0.426 1.279l-67.998 170.525c-2.132 5.33-6.395 9.806-11.936 11.936-5.33 2.132-11.511 1.918-16.84-0.426l-166.477-75.672c-10.871-4.476-15.987-17.052-11.511-27.923s17.052-15.987 27.923-11.511c0.426 0.214 0.853 0.426 1.279 0.639l116.598 53.076c-56.060-166.477-211.24-277.745-389.439-277.745-186.94 0-350.431 124.911-397.538 303.75-2.984 11.297-14.708 18.119-26.005 15.134s-18.119-14.708-15.134-26.005c51.797-197.597 232.342-335.509 438.678-335.509 196.744 0 367.697 122.779 429.726 306.521l49.026-122.565c4.051-11.085 16.201-16.84 27.284-12.789 11.083 4.049 16.838 16.199 12.789 27.284z" />
<glyph unicode="&#xe944;" glyph-name="euro" d="M682.667 78.221c-142.507 0-266.24 80.781-327.965 199.112h327.965v113.779h-364.941c-2.845 18.488-4.835 37.547-4.835 56.888s1.992 38.4 4.835 56.888h364.941v113.779h-327.965c61.725 118.328 185.173 199.112 327.965 199.112 91.875 0 175.787-33.565 240.355-89.032l100.979 100.408c-90.453 81.067-210.205 130.845-341.333 130.845-222.72 0-411.875-142.507-482.133-341.333h-200.533v-113.779h174.080c-2.275-18.773-3.413-37.547-3.413-56.888s1.139-38.115 3.413-56.888h-174.080v-113.779h200.533c70.259-198.827 259.413-341.333 482.133-341.333 131.128 0 250.88 49.779 341.333 130.845l-100.979 100.693c-64.568-55.467-148.48-89.317-240.355-89.317z" />
<glyph unicode="&#xe945;" glyph-name="deal" horiz-adv-x="1152" d="M670.644 7.548c-12.983 4.241-20.807 9.516-36.944 24.905l-15.881 15.146-16.248-8.547c-39.952-21.016-87.533-0.779-98.252 41.789-1.719 6.827-4.538 12.797-6.266 13.264s-8.675 2.358-15.438 4.197c-17.71 4.822-35.696 23.686-41.448 43.476-4.303 14.801-5.039 15.612-16.875 18.592-24.506 6.172-49.373 33.658-49.589 54.815-0.063 6.153-1.413 7.79-6.447 7.811-3.503 0.011-12.979 3.106-21.059 6.868-15.804 7.359-29.241 22.84-35.020 40.347-3.122 9.464-2.376 32.358 1.46 44.746 2.494 8.054-143.695 154.492-148.966 149.221-1.902-1.902-7.926-3.456-13.385-3.456-9.197 0-15.098 5.169-80.1 70.171-64.423 64.423-70.171 70.967-70.171 79.889 0 9.044 9.276 19.005 133.736 143.618 73.555 73.644 136.626 134.638 140.157 135.54s10.041 0.143 14.46-1.688c4.419-1.83 38.147-33.608 74.949-70.619 70.185-70.58 72.042-73.155 63.797-88.563-2.755-5.147-0.702-8.258 17.62-26.702l20.737-20.877h95.905l74.060-72.725 16.587 3.483c15.143 3.179 18.519 5.403 38.797 25.563l22.212 22.080-11.201 12.151c-19.091 20.712-20.456 18.466 60.327 99.251 61.225 61.225 72.735 71.53 79.896 71.53 7.277 0 28.020-19.641 159.147-150.681 147.936-147.842 150.779-150.891 150.779-161.789 0-10.706-2.374-13.494-65.579-77.069-36.069-36.28-69.704-67.92-74.746-70.313-11.176-5.303-16.468-3.654-30.248 9.43l-10.658 10.118-64.819-64.637 16.962-17.663c20.417-21.26 25.313-31.994 25.278-55.41-0.046-30.737-20.050-56.457-50.029-64.324-11.088-2.909-12.123-4.057-16.179-17.908-2.383-8.139-8.16-19.419-12.836-25.063-9.11-10.992-29.798-22.286-40.829-22.286-5.609 0-7.031-1.792-8.448-10.65-3.902-24.399-29.098-49.506-53.687-53.496-8.695-1.412-9.999-2.766-11.464-11.924-2.517-15.738-16.579-35.615-31.298-44.242-13.912-8.153-39.436-11.719-52.748-7.37zM703.673 56.947c5.418 4.66 7.706 9.332 7.706 15.738 0 7.592-3.723 12.853-22.341 31.582-25.293 25.444-34.29 28.427-46.51 15.42-12.443-13.244-9.429-22.050 16.112-47.081 25.157-24.656 31.861-26.987 45.034-15.658zM584.62 81.603c3.89 4.3 5.309 10.425 5.448 23.535 0.257 24.054 9.681 42.433 28.145 54.879 7.525 5.073 18.476 9.989 24.335 10.926 9.646 1.542 10.811 2.683 12.308 12.043 3.88 24.269 28.083 48.184 53.456 52.824 8.448 1.545 10.613 3.207 10.613 8.146 0 10.178 14.061 35.262 24.029 42.866 5.111 3.898 15.995 9.276 24.19 11.951 14.145 4.617 15.063 5.516 18.146 17.773 4.502 17.894 13.709 29.694 30.832 39.513 12.167 6.977 17.763 8.379 33.542 8.403 10.856 0.011 19.771 1.375 20.89 3.185 1.148 1.855-21.097 26.083-53.921 58.73-30.731 30.564-53.706 52.115-51.057 47.889s5.513-15.362 6.364-24.747c3.921-43.235-28.576-76.445-71.434-73.006-9.467 0.759-21.614 3.615-26.991 6.344s-29.844 24.822-54.369 49.092l-44.589 44.129-7.773-4.557c-10.452-6.128-36.473-13.633-47.271-13.633-7.691 0-18.273-9.543-87.227-78.66-71.885-72.053-78.476-79.467-78.476-88.266 0-13.151 9.333-22.708 22.177-22.708 8.823 0 13.571 3.661 44.85 34.585l34.982 34.585 32.362-32.362-34.811-34.895c-30.095-30.168-34.847-36.176-35.080-44.349-0.198-6.976 1.744-11.186 7.41-16.058 14.245-12.251 19.217-9.794 58.148 28.724l35.705 35.33 32.283-32.283-35.33-35.705c-39.527-39.949-41.739-44.811-27.055-59.495 14.653-14.653 19.528-12.294 62.555 30.272l32.619 32.268 30.664-31.050-34.506-35.195c-29.937-30.533-34.506-36.422-34.506-44.465 0-19.565 25.616-30.627 38.347-16.561zM768.983 121.571c4.433 4.165 6.551 9.363 6.551 16.082 0 8.618-2.923 12.85-22.129 32.056-25.116 25.116-34.425 28.1-47.345 15.181s-9.935-22.228 15.181-47.345c18.855-18.855 23.538-22.129 31.66-22.129 5.891 0 12.033 2.351 16.082 6.155zM834.765 187.973c10.529 13.385 8.025 19.738-18.048 45.811-22.516 22.516-24.461 23.81-33.257 22.109-12.050-2.329-19.249-11.174-19.249-23.65 0-8.549 2.878-12.79 20.908-30.821 19.091-19.091 21.903-20.908 32.343-20.908 8.983 0 12.693 1.6 17.303 7.458zM893.958 247.315c8.917 6.245 12.306 16.315 8.717 25.895-3.488 9.311-31.977 39.088-42.913 44.854-9.826 5.181-20.358 2.654-27.665-6.635-10.231-13.006-7.623-19.572 17.917-45.111 24.95-24.95 31.444-27.758 43.946-19.001zM403.282 412.548c33.535 33.567 55.382 57.499 53.75 58.886-1.511 1.285-7.644 5.927-13.632 10.314l-10.884 7.979 32.317 32.658 9.923-6.733c25.425-17.254 55.265-15.794 82.654 4.047 22.127 16.029 22.518 15.819 83.684-44.823 48.761-48.344 55.199-53.776 63.732-53.776 13.103 0 22.595 9.38 22.595 22.328 0 9.375-5.867 15.897-91.221 101.4l-91.221 91.38h-79.338l-202.379-202.32 38.869-38.943c21.377-21.419 40.172-38.943 41.763-38.943s28.319 25.446 59.391 56.549zM922.753 419.722l15.414 15.608-192.255 192.318-32.721-32.378 95.546-95.577c52.55-52.568 96.233-95.577 97.074-95.577s8.465 7.025 16.941 15.608zM1051.504 483.373l48.065 48.125-127.332 127.358c-70.034 70.046-128.598 127.358-130.143 127.358-3.699 0-94.86-91.078-94.86-94.773 0-2.823 251.945-256.192 254.753-256.192 0.801 0 23.086 21.656 49.523 48.125zM409.769 675.070c-8.1 8.201-16.037 14.912-17.638 14.912-3.706 0-191.162-187.243-191.162-190.945 0-1.517 6.662-9.503 14.803-17.746l14.803-14.99 193.919 193.858zM328.335 787.609l-48.121 48.121-224.972-224.972 96.154-96.278 225.062 225.009z" />
<glyph unicode="&#xe946;" glyph-name="shopping" d="M460.734 291.258c7.805 7.82 7.805 20.484 0 28.305-7.82 7.797-20.477 7.797-28.297 0-7.805-7.82-7.805-20.484 0-28.305 7.82-7.797 20.477-7.797 28.297 0zM468.016 761.992v-40c0-66.297 53.703-120 120-120 66.172 0 120.008 53.828 120.008 120v40c11.047 0 20 8.953 20 20s-8.953 20-20 20h-40c-11.047 0-20-8.953-20-20s8.953-20 20-20v-40c0-44.109-35.891-80-80.008-80-44.18 0-80 35.805-80 80v40c11.047 0 20 8.953 20 20s-8.953 20-20 20h-40c-11.047 0-20-8.953-20-20s8.953-20 20-20zM232.438-21.883c3.906-3.898 9.016-5.844 14.133-5.844s10.234 1.953 14.141 5.852l61.414 61.414c20.008 19.992 29.641 47.375 26.859 75.047l22.023 21.266c17.477 16.844 40.453 26.125 64.688 26.125h263.328c47.172 0 91.758 18.117 125.539 51.016 0.5 0.484 0.969 0.992 1.414 1.531l179.172 215.156c28.469 33.688 24.211 84.266-9.508 112.766-33.5 28.234-83.703 24.172-112.258-8.953l-19.352-20.016v390.523c0 11.047-8.961 20-20 20h-514.023c-11.039 0-20-8.953-20-20v-448.102c-77.453-16.258-138.883-64.336-171.969-134.617-26.094 1.352-51.539-8.242-70.422-27.148l-61.727-61.422c-3.766-3.75-5.883-8.844-5.891-14.156-0.008-5.32 2.109-10.414 5.867-14.172zM824.031 884v-411.883l-57.883-59.844c-14.898 18.305-37.602 29.711-62.125 29.711h-231.891c-1.281 0-2.672 0.297-4.070 0.859-31.156 12.703-64.148 19.141-98.047 19.141-6.695 0-13.367-0.242-20-0.68v422.695zM332.875 419.352c40.461 5.852 80.922 2.414 120.164-13.578 6.234-2.516 12.664-3.797 19.094-3.797h231.891c21.688 0 40-17.688 40-40 0-22.055-17.945-40-40-40h-174.008c-11.039 0-20-8.953-20-20s8.961-20 20-20h174.008c44.117 0 80 35.891 80 80 0 3.531-0.258 7.039-0.711 10.5 4.172 4.273 125.063 129.305 129.25 133.641 0.305 0.32 0.609 0.648 0.891 0.984 14.25 16.828 39.555 18.953 56.391 4.766 16.852-14.242 18.984-39.531 4.656-56.484l-178.57-214.438c-26.18-25.141-60.555-38.969-96.906-38.969h-263.328c-34.648 0-67.477-13.25-92.461-37.336l-8.82-8.516c-3.531 5.43-7.641 10.5-12.281 15.133l-122.844 122.844c-6.563 6.563-14.008 12.016-22.063 16.32 30.555 60.266 85.133 98.68 155.648 108.93zM95.875 265.82c21.016 21.047 54.602 20.531 75.125-0.008l122.859-122.852c20.594-20.555 20.961-54.18-0.008-75.125l-47.297-47.289-198.227 197.961z" />
<glyph unicode="&#xe947;" glyph-name="tag" d="M417.265 954.99c-4.56 4.593-11.337 6.185-17.463 4.118l-279.704-93.226-86.683 86.691c-6.702 6.468-17.347 6.377-23.932-0.208s-6.677-17.238-0.208-23.932l86.666-86.691-93.226-279.696c-2.034-6.135-0.442-12.895 4.135-17.472l603.562-603.579c6.669-6.66 17.472-6.66 24.14 0l386.293 386.301c6.669 6.66 6.669 17.472 0 24.132zM622.481-22.795l-584.065 584.048 84.499 253.497 66.185-66.185c-24.157-36.552-16.721-85.474 17.222-113.182 33.943-27.716 83.357-25.232 114.349 5.76 30.984 30.984 33.468 80.398 5.76 114.341-27.716 33.943-76.63 41.387-113.19 17.222l-66.152 66.185 253.497 84.541 584.048-584.015zM248.275 689.432c6.694-6.468 17.347-6.377 23.932 0.208s6.677 17.23 0.208 23.932l-33.993 34.018c19.489 9.503 42.87 5.543 58.15-9.844 18.672-18.397 20.514-47.897 4.268-68.469-16.246-20.564-45.371-25.616-67.594-11.703-22.215 13.912-30.4 42.312-18.997 65.91z" />
<glyph unicode="&#xe948;" glyph-name="profile" d="M510.308 388.309c151.328 0 274.069 122.743 274.069 274.069s-122.743 273.23-274.069 273.23-274.069-122.743-274.069-273.23 122.741-274.069 274.069-274.069zM510.308 864.148c110.973 0 201.77-90.795 201.77-201.77s-90.797-201.768-201.77-201.768-201.77 90.795-201.77 201.77 90.795 201.768 201.77 201.768zM36.15-39.609h951.679c20.177 0 36.15 15.973 36.15 36.15 0 189.159-153.849 343.849-343.849 343.849h-336.281c-189.159 0-343.849-153.849-343.849-343.849 0-20.177 15.973-36.15 36.15-36.15zM343.848 268.090h336.281c137.875 0 251.371-102.567 269.026-235.397h-874.334c17.655 131.989 131.151 235.397 269.026 235.397z" />
<glyph unicode="&#xe949;" glyph-name="like" d="M979.834 263.854c20.985 26.767 31.050 55.461 29.765 85.012-1.285 32.549-15.846 58.031-27.838 73.663 13.919 34.69 19.272 89.295-27.195 131.694-34.048 31.050-91.864 44.969-171.951 41.114-56.318-2.57-103.428-13.062-105.355-13.491h-0.214c-10.707-1.927-22.056-4.283-33.619-6.852-0.857 13.705 1.499 47.752 26.767 124.413 29.979 91.222 28.266 161.031-5.568 207.712-35.547 49.037-92.293 52.892-108.995 52.892-16.060 0-30.836-6.638-41.328-18.844-23.769-27.624-20.985-78.588-17.987-102.143-28.266-75.804-107.496-261.675-174.521-313.281-1.285-0.857-2.355-1.927-3.426-2.998-19.701-20.771-32.977-43.256-41.971-62.956-12.634 6.852-26.981 10.707-42.399 10.707h-130.623c-49.251 0-89.081-40.043-89.081-89.081v-347.972c0-49.251 40.043-89.081 89.081-89.081h130.623c19.058 0 36.831 5.996 51.393 16.274l50.322-5.996c7.709-1.071 144.756-18.416 285.444-15.632 25.482-1.927 49.465-2.998 71.736-2.998 38.33 0 71.736 2.998 99.573 8.994 65.526 13.919 110.28 41.757 132.979 82.657 17.345 31.264 17.345 62.314 14.561 82.014 42.613 38.545 50.108 81.158 48.609 111.137-0.857 17.345-4.711 32.12-8.78 43.041zM103.374 2.179c-17.345 0-31.264 14.133-31.264 31.264v348.186c0 17.345 14.133 31.264 31.264 31.264h130.623c17.345 0 31.264-14.133 31.264-31.264v-347.972c0-17.345-14.133-31.264-31.264-31.264h-130.623v-0.214zM925.015 288.908c-8.994-9.422-10.707-23.769-3.854-34.904 0-0.214 8.78-15.204 9.85-35.761 1.499-28.052-11.992-52.892-40.258-74.091-10.064-7.709-14.133-20.985-9.85-32.977 0-0.214 9.208-28.48-5.782-55.247-14.347-25.696-46.253-44.112-94.648-54.391-38.759-8.351-91.436-9.85-156.105-4.711-0.857 0-1.927 0-2.998 0-137.69-2.998-276.878 14.99-278.377 15.204h-0.214l-21.628 2.57c1.285 5.996 1.927 12.42 1.927 18.844v348.186c0 9.208-1.499 18.202-4.069 26.553 3.854 14.347 14.561 46.253 39.829 73.449 96.147 76.233 190.153 333.41 194.222 344.545 1.713 4.497 2.141 9.422 1.285 14.347-3.64 23.983-2.355 53.32 2.784 62.1 11.349-0.214 41.971-3.426 60.386-28.908 21.842-30.193 20.985-84.156-2.57-155.677-35.975-108.995-38.973-166.384-10.493-191.652 14.133-12.634 32.977-13.276 46.682-8.351 13.062 2.998 25.482 5.568 37.26 7.495 0.857 0.214 1.927 0.428 2.784 0.642 65.74 14.347 183.515 23.127 224.415-14.133 34.69-31.692 10.064-73.663 7.281-78.16-7.923-11.992-5.568-27.624 5.139-37.26 0.214-0.214 22.698-21.414 23.769-49.894 0.857-19.058-8.137-38.545-26.767-57.817z" />
<glyph unicode="&#xe94a;" glyph-name="camera_zoom" d="M81.83 100.413c-15.881 3.844-35.523 15.083-48.132 27.541-13.381 13.22-21.791 26.559-28.224 44.766l-4.756 13.458-0.463 189.817c-0.519 212.774-1.017 202.958 11.636 228.743 12.82 26.121 39.747 48.51 68.145 56.659 7.868 2.258 20.146 3.061 58.642 3.837l48.691 0.982 35.997 52.214c48.987 71.055 50.331 72.877 56.544 76.666 5.299 3.231 8.896 3.329 122.522 3.329 112.488 0 117.27-0.127 122.368-3.235 3.63-2.214 18.761-23.222 47.912-66.526l42.606-63.291h45.842c54.135 0 65.206-1.536 86.563-12.016 20.089-9.858 38.761-28.531 48.619-48.619 11.49-23.416 11.955-27.812 11.989-113.273l0.031-75.374h-53.771l-0.486 77.901-0.484 77.901-4.457 8.421c-5.873 11.095-14.795 20.057-25.545 25.654l-8.737 4.55-61.504 1.741c-57.499 1.629-61.858 1.966-66.963 5.203-3.741 2.371-18.582 23.054-47.137 65.689l-41.679 62.229-190.379 0.87-43.789-63.514c-32.559-47.227-45.296-64.401-49.664-66.967-5.526-3.246-9.287-3.503-63.143-4.295-56.555-0.831-57.373-0.894-65.689-4.972-11.78-5.777-23.405-18.217-27.663-29.6-3.462-9.254-3.497-11.197-3.497-195.34 0-183.493 0.044-186.119 3.46-195.24 4.574-12.223 16.176-24.893 28.202-30.8l9.605-4.718h618.156l9.605 4.718c12.027 5.907 23.628 18.577 28.202 30.8 1.902 5.085 3.46 10.355 3.46 11.71 0 2.059 4.437 2.463 27.053 2.463h27.053l-1.126-8c-1.763-12.535-8.852-32.271-15.571-43.355-13.822-22.803-41.053-42.868-66.236-48.804-15.681-3.696-628.524-3.623-643.808 0.078zM847.101 221.548v46.319h-92.639v84.218h92.639v92.639h84.218v-92.639h92.639v-84.218h-92.639v-92.639h-84.218zM368.928 227.529c-74.103 16.054-130.369 71.712-147.101 145.513-6.686 29.491-4.426 68.963 5.698 99.477 16.592 50.006 57.296 93.657 106.135 113.816 51.022 21.060 106.061 19.21 155.893-5.238 55.414-27.186 94.658-80.802 103.312-141.146 3.067-21.387 1.237-54.659-4.136-75.23-5.238-20.050-19.282-49.339-31.136-64.934-25.755-33.88-63.961-59.567-104.283-70.11-23.311-6.095-61.655-7.072-84.382-2.147zM423.786 278.081c89.816 12.214 143.441 108.293 105.85 189.649-23.95 51.834-73.073 81.893-129.556 79.277-21.88-1.014-33.832-3.972-52.521-12.997-35.122-16.961-62.039-49.452-72.571-87.604-4.754-17.225-4.3-54.14 0.872-70.684 16.562-52.984 59.146-90.003 112.254-97.582 14.507-2.070 20.816-2.081 35.671-0.063zM644.080 489.191c-6.756 2.943-15.864 12.197-18.711 19.012-3.353 8.026-2.897 23.054 0.929 30.49 6.61 12.853 18.988 20.567 32.999 20.567 38.4 0 50.047-51.518 15.646-69.212-7.369-3.791-23.126-4.226-30.864-0.857zM670.375 511.97c3.645 3.645 4.924 6.521 4.924 11.078s-1.278 7.432-4.924 11.078c-14.845 14.845-37.079-7.192-22.554-22.354 6.392-6.673 15.765-6.59 22.554 0.199zM655.493 513.955c-10.338 3.842-7.567 18.355 3.506 18.355 6.937 0 9.563-2.579 9.563-9.394 0-7.563-5.916-11.619-13.067-8.961z" />
</font>
</defs>
</svg>
