<svg width="16" height="22" viewBox="0 0 16 22" xmlns="http://www.w3.org/2000/svg" xmlns:xlink="http://www.w3.org/1999/xlink"><title>icon_tea</title><desc>Created using Figma</desc><use xlink:href="#a" transform="translate(0 10.13)" fill="#868689"/><use xlink:href="#b" transform="translate(3.6 1.8)" fill="#868689"/><use xlink:href="#c" transform="translate(8.18)" fill="#868689"/><defs><path id="a" d="M13.757 1.55V0H0v9.217a2.65 2.65 0 0 0 2.643 2.65h8.47a2.65 2.65 0 0 0 2.644-2.65v-.413A2.382 2.382 0 0 0 16 6.427v-2.5a2.382 2.382 0 0 0-2.243-2.377zm-.92 7.667c0 .953-.773 1.728-1.723 1.728h-8.47A1.728 1.728 0 0 1 .92 9.217V.922h11.917v8.295zm2.243-2.79a1.46 1.46 0 0 1-1.323 1.453V2.475a1.46 1.46 0 0 1 1.323 1.452v2.5z"/><path id="b" d="M.296 6.285l.65.652c.707-.708 1.038-1.387 1.014-2.074-.021-.609-.318-1.12-.58-1.572-.493-.846-.849-1.457.33-2.639L1.061 0C-.62 1.684.076 2.882.585 3.756c.495.852.822 1.415-.289 2.529z"/><path id="c" d="M.891 4.62c.35.461.68.898.706 1.392.03.574-.351 1.25-1.167 2.068l.65.652c1.025-1.027 1.481-1.906 1.436-2.769-.04-.776-.493-1.374-.892-1.901-.741-.98-1.277-1.689.44-3.41L1.414 0C.403 1.012-.045 1.88.003 2.734c.042.768.491 1.361.887 1.885z"/></defs></svg>