<svg width="44" height="48" viewBox="0 0 44 48" xmlns="http://www.w3.org/2000/svg" xmlns:xlink="http://www.w3.org/1999/xlink"><title>Icon</title><desc>Created using Figma</desc><use xlink:href="#a" transform="matrix(1.25 0 0 -1.25 .355 23.89)" fill="#66CFDF"/><use xlink:href="#b" transform="matrix(1.25 0 0 -1.25 14.989 18.27)" fill="#66CFDF"/><use xlink:href="#c" transform="matrix(1.25 0 0 -1.25 24.613 31.83)" fill="#66CFDF"/><use xlink:href="#d" transform="matrix(1.25 0 0 -1.25 0 40.26)" fill="#66CFDF"/><use xlink:href="#e" transform="matrix(1.25 0 0 -1.25 17.103 48)" fill="#66CFDF"/><use xlink:href="#f" transform="matrix(1.25 0 0 -1.25 6.73 37.24)" fill="#66CFDF"/><use xlink:href="#g" transform="matrix(1.25 0 0 -1.25 6.729 32.85)" fill="#66CFDF"/><use xlink:href="#h" transform="matrix(1.25 0 0 -1.25 4.574 32.85)" fill="#66CFDF"/><use xlink:href="#i" transform="matrix(1.25 0 0 -1.25 4.543 34.57)" fill="#66CFDF"/><use xlink:href="#j" transform="matrix(1.25 0 0 -1.25 22.258 44.54)" fill="#66CFDF"/><use xlink:href="#k" transform="matrix(1.25 0 0 -1.25 22.105 41.77)" fill="#66CFDF"/><use xlink:href="#l" transform="matrix(1.25 0 0 -1.25 10.934 2.55)" fill="#66CFDF"/><use xlink:href="#m" transform="matrix(1.25 0 0 -1.25 28.289 46.72)" fill="#66CFDF"/><use xlink:href="#n" transform="matrix(1.25 0 0 -1.25 29.713 27.93)" fill="#66CFDF"/><use xlink:href="#o" transform="matrix(1.25 0 0 -1.25 31.317 21.9)" fill="#66CFDF"/><use xlink:href="#p" transform="matrix(1.25 0 0 -1.25 31.317 28.74)" fill="#66CFDF"/><defs><path id="a" d="M20.383 0H3.914C1.76 0 .006 1.718.006 3.829L0 15.193c0 2.119 1.751 3.843 3.905 3.843l1.553.01h.008a.967.967 0 0 0 .975-.951.968.968 0 0 0-.968-.967l-1.56-.01c-1.085 0-1.962-.864-1.962-1.924L1.957 3.83c0-1.054.88-1.912 1.957-1.912h16.469c.54 0 .975-.428.975-.959A.967.967 0 0 0 20.383 0zm10.629 0a.968.968 0 0 0-.976.96c0 .53.437.958.976.958 1.077 0 1.953.858 1.953 1.911v11.377c0 1.06-.876 1.922-1.954 1.922H13.554c-.54 0-.976.43-.976.959 0 .53.436.96.976.96h17.459c2.154 0 3.904-1.724 3.904-3.841V3.829c0-2.111-1.75-3.829-3.904-3.829z"/><path id="b" d="M5.499 0C3.312 0 1.534 1.75 1.534 3.9v.555H.976a.968.968 0 0 0-.976.96.97.97 0 0 0 .976.959h.558v.55c0 2.146 1.778 3.891 3.965 3.891.686 0 1.355-.17 1.938-.492a.95.95 0 0 0 .37-1.307.985.985 0 0 0-1.329-.364 2.009 2.009 0 0 1-.98.245c-1.11 0-2.013-.885-2.013-1.974v-.55h2.059c.538 0 .975-.43.975-.959a.967.967 0 0 0-.975-.959H3.485v-.554c0-1.093.903-1.983 2.014-1.983.354 0 .685.084.981.247a.984.984 0 0 0 1.328-.368.949.949 0 0 0-.373-1.305A4.015 4.015 0 0 0 5.499 0z"/><path id="c" d="M6.36 10.583c-2.432 0-4.409-1.943-4.409-4.333 0-2.388 1.977-4.332 4.408-4.332 2.43 0 4.407 1.944 4.407 4.332 0 2.39-1.977 4.333-4.407 4.333zM6.36 0C2.852 0 0 2.804 0 6.25c0 3.447 2.853 6.252 6.36 6.252 3.506 0 6.358-2.805 6.358-6.252C12.718 2.804 9.866 0 6.359 0z"/><path id="d" d="M6.36 10.584c-2.43 0-4.409-1.943-4.409-4.333S3.93 1.918 6.36 1.918c2.43 0 4.408 1.944 4.408 4.333 0 2.39-1.978 4.333-4.408 4.333zM6.36 0C2.852 0 0 2.805 0 6.25c0 3.448 2.853 6.253 6.36 6.253 3.506 0 6.359-2.805 6.359-6.252C12.719 2.805 9.866 0 6.359 0z"/><path id="e" d="M6.358 0C2.852 0 0 2.804 0 6.25c0 3.447 2.852 6.252 6.358 6.252 3.507 0 6.359-2.805 6.359-6.251 0-.614-.09-1.222-.27-1.807a.979.979 0 0 0-1.215-.643.958.958 0 0 0-.654 1.194 4.3 4.3 0 0 1 .188 1.256c0 2.39-1.977 4.332-4.408 4.332-2.43 0-4.407-1.943-4.407-4.332 0-2.39 1.977-4.333 4.407-4.333.175 0 .346.01.513.03a.967.967 0 0 0 1.082-.843.961.961 0 0 0-.856-1.063A6.458 6.458 0 0 0 6.358 0z"/><path id="f" d="M.976 0A.967.967 0 0 0 0 .96v3.145c0 .53.436.96.976.96s.975-.43.975-.96V.96c0-.53-.436-.96-.975-.96z"/><path id="g" d="M.976 0c-.25 0-.5.094-.69.281a.947.947 0 0 0 0 1.356l1.246 1.225a.986.986 0 0 0 1.38 0 .947.947 0 0 0 0-1.356L1.666.28A.982.982 0 0 0 .976 0z"/><path id="h" d="M2.222 0c-.25 0-.5.094-.69.281L.286 1.506a.947.947 0 0 0 0 1.356.986.986 0 0 0 1.38 0l1.246-1.225a.947.947 0 0 0 0-1.356.982.982 0 0 0-.69-.281z"/><path id="i" d="M4.154 0H.976A.967.967 0 0 0 0 .96c0 .529.436.958.976.958h3.178c.54 0 .976-.43.976-.959A.967.967 0 0 0 4.154 0z"/><path id="j" d="M3.855 0H.975a.976.976 0 0 0-.844.48.943.943 0 0 0 0 .959c.24.41.297.602.37.883.058.234.029.649.004.98-.03.204-.217 1.556-.217 2.052 0 1.334.846 2.197 2.156 2.197.485 0 1.011-.153 1.561-.453a.949.949 0 0 0 .38-1.304.985.985 0 0 0-1.326-.374c-.35.192-.547.212-.615.212a.49.49 0 0 1-.188-.024c.02-.005-.017-.078-.017-.254 0-.268.12-1.244.206-1.852.038-.508.08-1.065-.036-1.584h1.446c.54 0 .976-.428.976-.959A.968.968 0 0 0 3.855 0z"/><path id="k" d="M3.228 0H.976A.967.967 0 0 0 0 .96c0 .529.437.958.976.958h2.252c.538 0 .975-.43.975-.959A.968.968 0 0 0 3.227 0z"/><path id="l" d="M2.081 1.022A1.03 1.03 0 0 0 1.042 0C.466 0 0 .457 0 1.022c0 .564.466 1.021 1.042 1.021a1.03 1.03 0 0 0 1.04-1.021z"/><path id="m" d="M2.081 1.022C2.081.458 1.615 0 1.042 0 .467 0 0 .458 0 1.022c0 .564.467 1.022 1.042 1.022.573 0 1.04-.458 1.04-1.022z"/><path id="n" d="M2.287 4.735c-.217 0-.32-.061-.334-.076l.003-.118c.031-.004.321-.145.555-.258l.193-.093a.929.929 0 0 0-.1.422.187.187 0 0 1-.007.06c-.01.009-.105.063-.31.063zm-.44-2.268a.955.955 0 0 0 .104-.434c.016-.056.117-.116.336-.116.22 0 .321.06.338.076l-.006.11c-.032.003-.321.143-.555.257l-.217.107zM2.287 0C.941 0 0 .836 0 2.033c0 .494.381.903.872.954C.386 3.316 0 3.782 0 4.612c0 1.182.963 2.042 2.287 2.042 1.336 0 2.268-.84 2.268-2.042a.965.965 0 0 0-.856-.953c.488-.329.875-.794.875-1.626C4.574.836 3.634 0 2.287 0z"/><path id="o" d="M.976 0C.436 0 0 .43 0 .96v.546c0 .53.436.96.976.96a.967.967 0 0 0 .975-.96V.959A.968.968 0 0 0 .976 0z"/><path id="p" d="M.976 0A.967.967 0 0 0 0 .96v.546c0 .53.436.96.976.96.538 0 .975-.43.975-.96V.959A.968.968 0 0 0 .976 0z"/></defs></svg>