<svg width="36" height="25" viewBox="0 0 36 25" xmlns="http://www.w3.org/2000/svg" xmlns:xlink="http://www.w3.org/1999/xlink"><title>Icon</title><desc>Created using Figma</desc><use xlink:href="#a" transform="translate(33.486 6.02)" fill="#66CFDF"/><use xlink:href="#b" fill="#66CFDF"/><use xlink:href="#c" transform="translate(.114 .23)" fill="#66CFDF"/><defs><path id="a" d="M0 1.273C0 .58.57 0 1.257 0c.686 0 1.257.579 1.257 1.273 0 .695-.571 1.273-1.257 1.273C.571 2.546 0 1.852 0 1.273z"/><path id="b" d="M0 1.273C0 .58.571 0 1.257 0c.686 0 1.257.579 1.257 1.273 0 .695-.571 1.273-1.257 1.273A1.276 1.276 0 0 1 0 1.273z"/><path id="c" d="M31.2 24.769H4.573C2.057 24.769 0 22.685 0 20.139V6.944c0-1.273.686-2.43 1.714-2.777 1.143-.463 2.4-.116 3.429.81l11.086 8.912s.114 0 .114.116c.8.926 2.4.926 3.2 0l13.829-11.69H5.6c-.686 0-1.143-.463-1.143-1.158C4.457.463 4.914 0 5.6 0h27.772c1.143 0 1.943.579 2.286 1.389.343.81.114 1.736-.572 2.43L21.03 15.741c-.8.81-1.943 1.273-3.2 1.273-1.143 0-2.286-.463-3.2-1.273L3.543 6.829s-.114 0-.114-.116c-.343-.347-.8-.463-1.029-.347-.229.116-.343.463-.343.694v13.195c0 1.273 1.029 2.315 2.286 2.315h26.629c1.257 0 2.286-1.042 2.286-2.315V10.88c0-.695.457-1.158 1.142-1.158.686 0 1.143.463 1.143 1.158v9.375c.229 2.43-1.828 4.514-4.342 4.514z"/></defs></svg>