<svg width="22" height="21" viewBox="0 0 22 21" xmlns="http://www.w3.org/2000/svg" xmlns:xlink="http://www.w3.org/1999/xlink"><title>icon_star</title><desc>Created using Figma</desc><use xlink:href="#a" transform="translate(1 1)" fill="#868689"/><defs><path id="a" d="M10 0l.448-.221a.5.5 0 0 0-.896 0L10 0zm3.09 6.253l-.448.222a.5.5 0 0 0 .376.273l.072-.495zM20 7.263l.349.358a.5.5 0 0 0-.277-.853L20 7.262zm-5 4.864l-.349-.358a.5.5 0 0 0-.144.443l.493-.085zM16.18 19l-.232.443a.5.5 0 0 0 .725-.528L16.18 19zM10 15.753l.232-.442a.5.5 0 0 0-.465 0l.233.442zM3.82 19l-.493-.085a.5.5 0 0 0 .726.528L3.82 19zM5 12.127l.493.085a.5.5 0 0 0-.144-.443L5 12.127zM0 7.262l-.072-.494a.5.5 0 0 0-.277.853L0 7.262zm6.91-1.009l.072.495a.5.5 0 0 0 .376-.273l-.448-.222zM9.552.221l3.09 6.254.896-.443-3.09-6.253-.896.442zm3.466 6.527l6.91 1.01.144-.99-6.91-1.01-.144.99zm6.633.156l-5 4.865.698.717 5-4.865-.698-.717zm-5.144 5.308l1.18 6.873.986-.17-1.18-6.872-.986.169zm1.906 6.345l-6.18-3.246-.466.885 6.18 3.247.466-.886zm-6.646-3.246l-6.18 3.246.466.886 6.18-3.247-.466-.885zm-5.454 3.774l1.18-6.873-.986-.17-1.18 6.873.986.17zm1.036-7.316l-5-4.865-.698.717 5 4.865.698-.717zM.072 7.757l6.91-1.009-.144-.99-6.91 1.01.144.99zm7.286-1.282L10.448.22l-.896-.44-3.09 6.253.896.443z"/></defs></svg>