<svg width="34" height="48" viewBox="0 0 34 48" xmlns="http://www.w3.org/2000/svg" xmlns:xlink="http://www.w3.org/1999/xlink"><title>Icon</title><desc>Created using Figma</desc><use xlink:href="#a" transform="matrix(1.25 0 0 -1.25 0 48)" fill="#66CFDF"/><use xlink:href="#b" transform="matrix(1.25 0 0 -1.25 8.721 38.28)" fill="#66CFDF"/><use xlink:href="#c" transform="matrix(1.25 0 0 -1.25 25.756 16.67)" fill="#66CFDF"/><use xlink:href="#d" transform="matrix(1.25 0 0 -1.25 8.748 19.77)" fill="#66CFDF"/><defs><path id="a" d="M21.599 0H5.121C2.298 0 0 2.294 0 5.112v14.26a5.133 5.133 0 0 0 4.21 5.045v8.438c0 3.11 2.405 5.545 5.473 5.545h7.297a5.547 5.547 0 0 0 5.537-5.545v-3.968a.925.925 0 1 0-1.85 0v3.968a3.695 3.695 0 0 1-3.687 3.694H9.683c-2.031 0-3.622-1.622-3.622-3.694v-9.282a.924.924 0 0 0-.925-.925H5.12a3.276 3.276 0 0 1-3.27-3.275V5.112A3.27 3.27 0 0 1 5.12 1.85h16.478a3.269 3.269 0 0 1 3.27 3.26v14.262a3.276 3.276 0 0 1-3.27 3.274H10.934a.925.925 0 1 0 0 1.851H21.6a5.13 5.13 0 0 0 5.12-5.125V5.112C26.72 2.294 24.422 0 21.6 0z"/><path id="b" d="M4.952 0c-.023 0-.048 0-.07.003a.922.922 0 0 0-.649.34L.206 5.314a.924.924 0 0 0 .138 1.301.923.923 0 0 0 1.301-.136l3.41-4.21 7.657 6.935a.926.926 0 0 0 1.242-1.372L5.573.24A.929.929 0 0 0 4.951 0z"/><path id="c" d="M0 .986A.987.987 0 1 0 1.975.985.987.987 0 0 0 0 .986z"/><path id="d" d="M0 .986A.986.986 0 1 0 1.973.985.986.986 0 0 0 0 .986z"/></defs></svg>