<svg width="48" height="40" viewBox="0 0 48 40" xmlns="http://www.w3.org/2000/svg" xmlns:xlink="http://www.w3.org/1999/xlink"><title>Icon</title><desc>Created using Figma</desc><use xlink:href="#a" transform="matrix(1.25 0 0 -1.25 14.372 9.42)" fill="#66CFDF"/><use xlink:href="#b" transform="matrix(1.25 0 0 -1.25 9.637 38.75)" fill="#66CFDF"/><use xlink:href="#c" transform="matrix(1.25 0 0 -1.25 35.996 39.92)" fill="#66CFDF"/><use xlink:href="#d" transform="matrix(1.25 0 0 -1.25 35.996 14.1)" fill="#66CFDF"/><use xlink:href="#e" transform="matrix(1.25 0 0 -1.25 0 39.92)" fill="#66CFDF"/><use xlink:href="#f" transform="matrix(1.25 0 0 -1.25 35.915 18.88)" fill="#66CFDF"/><use xlink:href="#g" transform="matrix(1.25 0 0 -1.25 19.039 40)" fill="#66CFDF"/><defs><path id="a" d="M14.396 0c-.53 0-.958.42-.958.939v3c0 .95-.79 1.721-1.758 1.721H3.672c-.97 0-1.757-.772-1.757-1.722V.94A.949.949 0 0 0 .958 0C.428 0 0 .42 0 .939v3c0 1.985 1.646 3.6 3.672 3.6h8.008c2.025 0 3.673-1.615 3.673-3.6v-3A.949.949 0 0 0 14.396 0z"/><path id="b" d="M1.915 0H0v24.4h1.915V0z"/><path id="c" d="M.958 0A.949.949 0 0 0 0 .939v13.134c0 .519.43.939.958.939.53 0 .957-.42.957-.94V.94A.948.948 0 0 0 .958 0z"/><path id="d" d="M.958 0A.949.949 0 0 0 0 .939v3.528c0 .518.43.939.958.939.53 0 .957-.42.957-.94V.94A.948.948 0 0 0 .958 0z"/><path id="e" d="M34.727 0h-14.54a.95.95 0 0 0-.958.939c0 .52.43.939.958.939h14.54c.97 0 1.758.773 1.758 1.724v19.074c0 .95-.789 1.724-1.758 1.724H3.673c-.97 0-1.758-.773-1.758-1.724V3.602c0-.951.789-1.724 1.758-1.724h8.807c.529 0 .958-.42.958-.939A.949.949 0 0 0 12.48 0H3.673C1.647 0 0 1.616 0 3.602v19.074c0 1.987 1.647 3.602 3.673 3.602h31.054c2.025 0 3.673-1.615 3.673-3.602V3.602C38.4 1.616 36.752 0 34.727 0z"/><path id="f" d="M2.043 1c0-.553-.458-1-1.02-1C.459 0 0 .447 0 1c0 .553.459 1 1.023 1a1.01 1.01 0 0 0 1.02-1z"/><path id="g" d="M2.043 1c0-.553-.459-1-1.021-1A1.01 1.01 0 0 0 0 1c0 .553.458 1 1.022 1a1.01 1.01 0 0 0 1.02-1z"/></defs></svg>