<svg width="48" height="36" viewBox="0 0 48 36" xmlns="http://www.w3.org/2000/svg" xmlns:xlink="http://www.w3.org/1999/xlink"><title>Icon</title><desc>Created using Figma</desc><use xlink:href="#a" transform="matrix(1.25 0 0 -1.25 5.48 10.26)" fill="#66CFDF"/><use xlink:href="#b" transform="matrix(1.25 0 0 -1.25 14.561 36)" fill="#66CFDF"/><use xlink:href="#c" transform="matrix(1.25 0 0 -1.25 4.406 35.73)" fill="#66CFDF"/><use xlink:href="#d" transform="matrix(1.25 0 0 -1.25 .08 30.15)" fill="#66CFDF"/><use xlink:href="#e" transform="matrix(1.25 0 0 -1.25 .08 18.62)" fill="#66CFDF"/><use xlink:href="#f" transform="matrix(1.25 0 0 -1.25 0 21.99)" fill="#66CFDF"/><use xlink:href="#g" transform="matrix(1.25 0 0 -1.25 15.275 18.19)" fill="#66CFDF"/><use xlink:href="#h" transform="matrix(1.25 0 0 -1.25 18.442 24.21)" fill="#66CFDF"/><use xlink:href="#i" transform="matrix(1.25 0 0 -1.25 18.442 13.51)" fill="#66CFDF"/><use xlink:href="#j" transform="matrix(1.25 0 0 -1.25 37.131 2.69)" fill="#66CFDF"/><use xlink:href="#k" transform="matrix(1.25 0 0 -1.25 4.417 36)" fill="#66CFDF"/><defs><path id="a" d="M4.17 6.311c-1.235 0-2.24-.989-2.24-2.204C1.93 2.889 2.935 1.9 4.17 1.9c1.236 0 2.24.99 2.24 2.207 0 1.215-1.004 2.204-2.24 2.204zM4.17 0C1.87 0 0 1.843 0 4.107 0 6.37 1.87 8.21 4.17 8.21s4.17-1.84 4.17-4.104C8.34 1.843 6.47 0 4.17 0z"/><path id="b" d="M.965 0A.957.957 0 0 0 0 .95v14.246c0 .526.431.95.965.95a.957.957 0 0 0 .965-.95V.95A.958.958 0 0 0 .965 0z"/><path id="c" d="M.965 0A.957.957 0 0 0 0 .95v10.004c0 .524.432.95.965.95a.958.958 0 0 0 .965-.95V.95A.957.957 0 0 0 .965 0z"/><path id="d" d="M2.729 0C2.065 0 1.432.194.946.545A2.224 2.224 0 0 0 0 2.385v2.642c0 .525.432.95.965.95a.957.957 0 0 0 .965-.95V2.386c0-.48.79-.486.799-.486.235 0 .459.06.596.16.098.071.137.15.137.278 0 .526.432.95.965.95a.957.957 0 0 0 .965-.95C5.392.983 4.272 0 2.73 0z"/><path id="e" d="M.965 0A.958.958 0 0 0 0 .95c0 2.78 2.272 5.043 5.063 5.043l18.35-.003a.957.957 0 0 0 .966-.95.957.957 0 0 0-.965-.95l-18.35.003A3.142 3.142 0 0 1 1.93.95.958.958 0 0 0 .965 0z"/><path id="f" d="M0 1.012c0 .559.46 1.013 1.029 1.013.568 0 1.03-.454 1.03-1.013C2.059.454 1.597 0 1.029 0A1.02 1.02 0 0 0 0 1.012z"/><path id="g" d="M5.791 0H.965A.957.957 0 0 0 0 .95c0 .525.431.95.965.95h4.826a.957.957 0 0 0 .965-.95.957.957 0 0 0-.965-.95z"/><path id="h" d="M21.716 0H1.93C.865 0 0 .852 0 1.9v3.86c0 .526.431.95.965.95a.957.957 0 0 0 .965-.95V1.9h19.786v15.377H18.54a.958.958 0 0 0-.965.95c0 .525.432.95.965.95h3.177c1.066 0 1.93-.851 1.93-1.9V1.9c0-1.048-.864-1.9-1.93-1.9z"/><path id="i" d="M.965 0A.957.957 0 0 0 0 .95v7.769c0 1.047.865 1.9 1.93 1.9h11.06a.958.958 0 0 0 .964-.95.958.958 0 0 0-.965-.95H1.93V.949A.957.957 0 0 0 .965 0z"/><path id="j" d="M0 1.012c0 .559.461 1.013 1.028 1.013.57 0 1.03-.454 1.03-1.013A1.02 1.02 0 0 0 1.029 0 1.02 1.02 0 0 0 0 1.012z"/><path id="k" d="M8.686 0H.966A.957.957 0 0 0 0 .95c0 .525.431.95.965.95h7.721a.957.957 0 0 0 .966-.95.957.957 0 0 0-.966-.95z"/></defs></svg>