<svg width="48" height="46" viewBox="0 0 48 46" xmlns="http://www.w3.org/2000/svg" xmlns:xlink="http://www.w3.org/1999/xlink"><title>Icon</title><desc>Created using Figma</desc><use xlink:href="#a" transform="matrix(1.25 0 0 -1.25 0 46)" fill="#66CFDF"/><use xlink:href="#b" transform="matrix(1.25 0 0 -1.25 10.833 7.18)" fill="#66CFDF"/><use xlink:href="#c" transform="matrix(1.25 0 0 -1.25 4.059 42.93)" fill="#66CFDF"/><defs><path id="a" d="M15.602 31.117h-2.534a.904.904 0 0 0-.904.906c0 .5.405.906.904.906h2.534c.476 0 .866.388.866.867v2.098a.904.904 0 1 0 1.806 0v-2.098a2.678 2.678 0 0 0-2.672-2.68zm8.35 0H21.42a.905.905 0 1 0 0 1.812h2.534c.477 0 .866.388.866.867v2.098a.904.904 0 1 0 1.807 0v-2.098a2.678 2.678 0 0 0-2.673-2.68zm-6.671-18.925a.906.906 0 0 0-.903.906V23.58l-2.995-3.004a.902.902 0 0 0-1.277 0 .907.907 0 0 0 0 1.28l4.536 4.552a.903.903 0 0 0 1.542-.64v-12.67c0-.5-.404-.906-.903-.906zm11.373-7.15H4.649A4.659 4.659 0 0 0 0 9.703V30.25a2.68 2.68 0 0 0 2.674 2.679h2.635c.477 0 .864.388.864.867v2.098a.904.904 0 1 0 1.807 0v-2.098a2.678 2.678 0 0 0-2.671-2.68H2.674a.869.869 0 0 1-.867-.866V9.7a2.848 2.848 0 0 1 2.842-2.846h24.005A2.848 2.848 0 0 1 31.498 9.7v20.545c0 .48-.39.87-.87.87a.905.905 0 0 0-.903.907c0 .5.404.906.904.906a2.682 2.682 0 0 0 2.675-2.683V9.701a4.66 4.66 0 0 0-4.65-4.658zM7.929 0c-.872 0-1.83.14-2.447.899a.908.908 0 0 0 .128 1.274.902.902 0 0 0 1.272-.128c.234-.287 1.141-.24 1.74-.208.178.008.35.018.51.021l24.619.001a2.85 2.85 0 0 1 2.842 2.85v21.78c0 .305-.154.58-.413.738a.908.908 0 0 0-.301 1.244.901.901 0 0 0 1.242.303 2.657 2.657 0 0 0 1.279-2.286V4.71c0-2.57-2.086-4.662-4.65-4.662H9.154l-.437-.02A14.136 14.136 0 0 0 7.93 0z"/><path id="b" d="M0 .966a.965.965 0 1 0 1.93 0 .965.965 0 0 0-1.93 0z"/><path id="c" d="M0 .965c0 .533.433.966.963.966A.966.966 0 0 0 .963 0 .965.965 0 0 0 0 .965z"/></defs></svg>