<svg width="38" height="38" viewBox="0 0 38 38" xmlns="http://www.w3.org/2000/svg" xmlns:xlink="http://www.w3.org/1999/xlink"><title>Icon</title><desc>Created using Figma</desc><use xlink:href="#a" transform="matrix(1.25 0 0 -1.25 .845 37.36)" fill="#66CFDF"/><use xlink:href="#b" transform="matrix(1.25 0 0 -1.25 .478 37.71)" fill="#66CFDF"/><use xlink:href="#c" transform="matrix(1.25 0 0 -1.25 16.95 38)" fill="#66CFDF"/><use xlink:href="#c" transform="matrix(1.25 0 0 -1.25 0 20.97)" fill="#66CFDF"/><use xlink:href="#d" transform="matrix(1.25 0 0 -1.25 9.337 33.54)" fill="#66CFDF"/><use xlink:href="#b" transform="matrix(1.25 0 0 -1.25 .478 37.71)" fill="#66CFDF"/><defs><path id="a" d="M10.81 0c-.07 0-.142.01-.213.03A15.165 15.165 0 0 0 .029 10.627a.809.809 0 0 0 .56.993.805.805 0 0 0 .99-.563 13.548 13.548 0 0 1 9.445-9.471A.81.81 0 0 0 10.81 0z"/><path id="b" d="M17.445 0a.804.804 0 0 0-.79.664c-.08.438.21.859.647.937a13.561 13.561 0 0 1 8.966 6.023c4.031 6.3 2.209 14.72-4.062 18.77a13.371 13.371 0 0 1-10.181 1.845 13.428 13.428 0 0 1-8.499-5.929 13.538 13.538 0 0 1-1.932-4.914.798.798 0 0 0-.934-.65.806.806 0 0 0-.647.938c.353 1.96 1.08 3.81 2.16 5.5a15.033 15.033 0 0 0 9.51 6.633 14.95 14.95 0 0 0 11.391-2.065c7.016-4.53 9.056-13.951 4.547-21.001A15.166 15.166 0 0 0 17.589.013.8.8 0 0 0 17.445 0z"/><path id="c" d="M1.32 1.585a.864.864 0 0 0 .258-1.19A.855.855 0 0 0 .394.137a.865.865 0 0 0-.259 1.19c.257.4.788.515 1.185.258z"/><path id="d" d="M6.953 0a.805.805 0 0 0-.803.807v5.346a2.54 2.54 0 0 0 1.678 2.395c1.104.48 4.46 2.194 4.46 5.306 0 2.96-2.394 5.369-5.335 5.369-2.948 0-5.346-2.409-5.346-5.369a.806.806 0 0 0-.803-.807.805.805 0 0 0-.804.807c0 3.85 3.12 6.983 6.953 6.983 3.827 0 6.942-3.132 6.942-6.983 0-4.144-4.194-6.26-5.48-6.81l-.192.427.152-.441a.925.925 0 0 1-.618-.877V.807A.806.806 0 0 0 6.953 0z"/></defs></svg>