<svg width="33" height="48" viewBox="0 0 33 48" xmlns="http://www.w3.org/2000/svg" xmlns:xlink="http://www.w3.org/1999/xlink"><title>Icon</title><desc>Created using Figma</desc><use xlink:href="#a" transform="matrix(1.25 0 0 -1.25 11.487 48)" fill="#66CFDF"/><use xlink:href="#b" transform="matrix(1.25 0 0 -1.25 16.015 19.69)" fill="#66CFDF"/><use xlink:href="#c" transform="matrix(1.25 0 0 -1.25 20.146 21.33)" fill="#66CFDF"/><use xlink:href="#d" transform="matrix(1.25 0 0 -1.25 6.745 21.17)" fill="#66CFDF"/><use xlink:href="#e" transform="matrix(1.25 0 0 -1.25 23.795 17.41)" fill="#66CFDF"/><use xlink:href="#f" transform="matrix(1.25 0 0 -1.25 0 20.44)" fill="#66CFDF"/><use xlink:href="#g" transform="matrix(1.25 0 0 -1.25 20.704 41.24)" fill="#66CFDF"/><use xlink:href="#h" transform="matrix(1.25 0 0 -1.25 3.102 13.58)" fill="#66CFDF"/><defs><path id="a" d="M6.576 0H2.564A2.564 2.564 0 0 0 0 2.557v18.425c0 1.41 1.15 2.558 2.564 2.558h4.012a2.563 2.563 0 0 0 2.564-2.558V9.662a.854.854 0 0 0-1.71 0v11.32c0 .47-.383.853-.854.853H2.564a.855.855 0 0 1-.855-.853V2.557c0-.47.384-.852.855-.852h4.012c.471 0 .855.383.855.852v.337a.854.854 0 0 0 1.71 0v-.337A2.565 2.565 0 0 0 6.575 0z"/><path id="b" d="M1.726 12.385l.05-7.69c.409.477.756.988.84 1.379.59 2.77-.107 4.913-.89 6.31zM.947 0a.854.854 0 0 0-.855.847L0 14.897a.855.855 0 0 0 1.418.648c.17-.15 4.17-3.725 2.87-9.826-.33-1.548-2.27-3.226-2.49-3.413a.022.022 0 0 0-.006-.004l.01-1.444A.853.853 0 0 0 .953 0H.947z"/><path id="c" d="M.855 0A.85.85 0 0 0 .23 1.435l3.8 4.056a.856.856 0 0 0 1.208.04.85.85 0 0 0 .041-1.204L1.48.27A.85.85 0 0 0 .855 0z"/><path id="d" d="M4.921 0a.855.855 0 0 0-.584.23L.272 4.021A.85.85 0 0 0 .23 5.226a.857.857 0 0 0 1.207.04l4.067-3.791A.85.85 0 0 0 4.92 0z"/><path id="e" d="M4.422 0a.865.865 0 0 0-.277.046L1.46.962a.854.854 0 0 0-.535.544L.042 4.221c-.1.306-.018.64.208.867l2.051 2.044c.2.2.485.287.763.236L4.38 7.12a.853.853 0 1 0-.316-1.676l-.874.164L1.83 4.25l.59-1.813 1.776-.607 1.382 1.381-.19.899a.856.856 0 0 0 1.673.352l.286-1.351a.852.852 0 0 0-.232-.78L5.026.25A.853.853 0 0 0 4.422 0z"/><path id="f" d="M3.527 0a.848.848 0 0 0-.525.18L.33 2.259a.85.85 0 0 0-.15 1.197l.632.807a.857.857 0 0 0 1.2.149.85.85 0 0 0 .148-1.196l-.106-.136L3.38 2.05l4.21 5.385-1.325 1.031-.028-.035A.854.854 0 0 0 4.89 9.48l.553.706a.855.855 0 0 0 1.2.148l2.672-2.078a.85.85 0 0 0 .148-1.197L4.202.329A.854.854 0 0 0 3.526 0z"/><path id="g" d="M1.823.908A.909.909 0 0 0 .912 0 .91.91 0 0 0 0 .908a.91.91 0 0 0 .912.908.909.909 0 0 0 .911-.908z"/><path id="h" d="M1.823.908A.91.91 0 0 0 .912 0 .91.91 0 0 0 0 .908a.91.91 0 0 0 .912.909.91.91 0 0 0 .911-.91z"/></defs></svg>