<svg width="39" height="49" viewBox="0 0 39 49" xmlns="http://www.w3.org/2000/svg" xmlns:xlink="http://www.w3.org/1999/xlink"><title>Icon</title><desc>Created using Figma</desc><use xlink:href="#a" transform="matrix(1.25 0 0 -1.25 0 48.1)" fill="#66CFDF"/><use xlink:href="#b" transform="translate(-5 20)" fill="#66CFDF"/><defs><path id="a" d="M29.113 28.95c0-.48.427-.907.91-.907a.9.9 0 0 1 .909.908c0 .482-.428.91-.91.91a.937.937 0 0 1-.91-.91zM.16 9.098c0-.481.428-.909.91-.909.535 0 .909.428.909.91 0 .482-.428.91-.91.91a.901.901 0 0 1-.909-.91zm3.48 20.925h4.87v4.87l-4.87-4.87zM1.07 11.345c-.588 0-1.07.481-1.07 1.07v16.536a.89.89 0 0 0 .268.643l.053.053 8.562 8.562h.054c.161.161.429.268.696.268h16.644a4.911 4.911 0 0 0 4.923-4.924V32.27c0-.59-.482-1.07-1.07-1.07-.59 0-1.071.48-1.071 1.07v1.39c0 1.5-1.231 2.784-2.783 2.784H10.757V28.95c0-.588-.482-1.07-1.07-1.07H2.195V12.416c-.053-.59-.536-1.071-1.124-1.071zM4.925 0A4.911 4.911 0 0 0 0 4.924V5.94c0 .589.482 1.07 1.07 1.07.589 0 1.072-.481 1.072-1.07V4.924c0-1.5 1.23-2.784 2.782-2.784h21.299c1.498 0 2.782 1.231 2.782 2.784v20.602c0 .59.483 1.07 1.07 1.07.59 0 1.071-.48 1.071-1.07V4.976A4.911 4.911 0 0 0 26.223.053L4.923 0z"/><path id="b" d="M13.104 10.72c0 .075-.028.14-.084.196a.269.269 0 0 1-.196.084h-1.386a.269.269 0 0 1-.196-.084.269.269 0 0 1-.084-.196V.864c0-.075.028-.135.084-.182a.269.269 0 0 1 .196-.084h1.386c.075 0 .14.028.196.084a.226.226 0 0 1 .084.182v9.856zm9.101.112c0 .112-.056.168-.168.168H20.33a.188.188 0 0 1-.168-.084 1.81 1.81 0 0 1-.112-.196l-2.016-3.738h-.196c-.186 0-.401-.005-.644-.014a34.655 34.655 0 0 0-.602-.042v3.794c0 .075-.028.14-.084.196a.226.226 0 0 1-.182.084h-1.4a.269.269 0 0 1-.196-.084.269.269 0 0 1-.084-.196V1.088c0-.14.037-.238.112-.294a.686.686 0 0 1 .336-.126c.364-.056.784-.098 1.26-.126.476-.037.97-.056 1.484-.056.541 0 1.055.056 1.54.168.486.103.91.275 1.274.518.373.243.668.57.882.98.224.401.336.9.336 1.498v.126c0 .747-.172 1.353-.518 1.82a2.962 2.962 0 0 1-1.372 1.036l2.198 4.088a.2.2 0 0 1 .028.112zM19.937 3.65c0-.532-.177-.915-.532-1.148-.345-.233-.868-.35-1.568-.35-.075 0-.172.005-.294.014-.112 0-.229.005-.35.014-.121 0-.238.005-.35.014-.102 0-.186.005-.252.014v3.15c.056 0 .14.005.252.014.122 0 .243.005.364.014.13 0 .252.005.364.014h.266c.728 0 1.26-.117 1.596-.35.336-.233.504-.658.504-1.274V3.65zm10.519.196c0 .616-.112 1.134-.336 1.554-.215.42-.509.76-.882 1.022a3.658 3.658 0 0 1-1.274.546 7.427 7.427 0 0 1-1.54.154c-.187 0-.402-.005-.644-.014a34.519 34.519 0 0 0-.602-.042v3.654c0 .075-.028.14-.084.196a.226.226 0 0 1-.182.084h-1.4a.269.269 0 0 1-.196-.084.269.269 0 0 1-.084-.196V1.088c0-.14.037-.238.112-.294a.686.686 0 0 1 .336-.126c.364-.056.784-.098 1.26-.126.476-.037.97-.056 1.484-.056.541 0 1.054.051 1.54.154.485.103.91.28 1.274.532.373.252.667.588.882 1.008.224.41.336.924.336 1.54v.126zm-1.932-.126c0-.588-.178-1.003-.532-1.246-.346-.252-.868-.378-1.568-.378-.075 0-.173.005-.294.014-.112 0-.229.005-.35.014a4.22 4.22 0 0 0-.35.014c-.103 0-.187.005-.252.014v3.332c.056 0 .14.005.252.014.121 0 .242.005.364.014.13 0 .252.005.364.014h.266c.756 0 1.292-.14 1.61-.42.326-.28.49-.7.49-1.26V3.72zm9.085-1.848c0 .075-.028.14-.084.196a.269.269 0 0 1-.196.084h-2.856c-.41 0-.7.084-.868.252-.158.168-.238.485-.238.952v1.512h3.794c.075 0 .14.028.196.084a.269.269 0 0 1 .084.196v1.008c0 .075-.028.14-.084.196a.269.269 0 0 1-.196.084h-3.794v4.284c0 .075-.028.14-.084.196a.269.269 0 0 1-.196.084h-1.372a.269.269 0 0 1-.196-.084.269.269 0 0 1-.084-.196V3.356c0-.597.084-1.083.252-1.456.168-.373.397-.663.686-.868.29-.215.63-.36 1.022-.434A6.814 6.814 0 0 1 34.67.486c.42 0 .77.01 1.05.028.29.01.532.023.728.042.206.019.374.042.504.07.14.019.266.037.378.056.103.019.173.047.21.084.047.037.07.107.07.21v.896z"/></defs></svg>