<svg width="39" height="49" viewBox="0 0 39 49" xmlns="http://www.w3.org/2000/svg" xmlns:xlink="http://www.w3.org/1999/xlink"><title>Icon</title><desc>Created using Figma</desc><use xlink:href="#a" transform="matrix(1.25 0 0 -1.25 0 48.1)" fill="#66CFDF"/><use xlink:href="#b" transform="translate(-5 20)" fill="#66CFDF"/><defs><path id="a" d="M29.113 28.95c0-.48.427-.907.91-.907a.9.9 0 0 1 .909.908c0 .482-.428.91-.91.91a.937.937 0 0 1-.91-.91zM.16 9.098c0-.481.428-.909.91-.909.535 0 .909.428.909.91 0 .482-.428.91-.91.91a.901.901 0 0 1-.909-.91zm3.48 20.925h4.87v4.87l-4.87-4.87zM1.07 11.345c-.588 0-1.07.481-1.07 1.07v16.536a.89.89 0 0 0 .268.643l.053.053 8.562 8.562h.054c.161.161.429.268.696.268h16.644a4.911 4.911 0 0 0 4.923-4.924V32.27c0-.59-.482-1.07-1.07-1.07-.59 0-1.071.48-1.071 1.07v1.39c0 1.5-1.231 2.784-2.783 2.784H10.757V28.95c0-.588-.482-1.07-1.07-1.07H2.195V12.416c-.053-.59-.536-1.071-1.124-1.071zM4.925 0A4.911 4.911 0 0 0 0 4.924V5.94c0 .589.482 1.07 1.07 1.07.589 0 1.072-.481 1.072-1.07V4.924c0-1.5 1.23-2.784 2.782-2.784h21.299c1.498 0 2.782 1.231 2.782 2.784v20.602c0 .59.483 1.07 1.07 1.07.59 0 1.071-.48 1.071-1.07V4.976A4.911 4.911 0 0 0 26.223.053L4.923 0z"/><path id="b" d="M15.227 10.566c0 .103-.027.177-.084.224a.846.846 0 0 1-.224.098 2.8 2.8 0 0 1-.293.07 10.88 10.88 0 0 1-.49.056 10.27 10.27 0 0 1-1.428.098c-.42 0-.864-.06-1.33-.182a3.383 3.383 0 0 1-1.289-.658c-.382-.327-.704-.765-.966-1.316-.252-.55-.378-1.26-.378-2.128V4.77c0-.877.126-1.591.378-2.142.262-.56.584-.999.966-1.316a3.225 3.225 0 0 1 1.288-.644c.467-.121.91-.182 1.33-.182a10.059 10.059 0 0 1 1.428.098c.197.019.36.042.49.07.14.028.239.047.294.056a.63.63 0 0 1 .224.112c.056.037.084.107.084.21v.938a.317.317 0 0 1-.07.21c-.037.056-.107.084-.21.084h-.027c-.122-.01-.271-.019-.448-.028a8.713 8.713 0 0 0-.546-.042l-.603-.028a12.98 12.98 0 0 0-.588-.014 2.36 2.36 0 0 0-.825.14 1.45 1.45 0 0 0-.63.434c-.178.196-.318.462-.42.798-.103.336-.154.751-.154 1.246v2.058c0 .485.05.896.154 1.232.102.336.242.607.42.812.177.205.387.355.63.448.252.084.527.126.825.126.187 0 .383-.005.588-.014a280.141 280.141 0 0 0 1.149-.056c.177-.019.326-.033.447-.042h.028c.103 0 .173.028.21.084.047.056.07.126.07.21v.938zm8.351-6.72c0 .616-.112 1.134-.336 1.554-.215.42-.509.76-.882 1.022a3.658 3.658 0 0 1-1.274.546 7.427 7.427 0 0 1-1.54.154c-.186 0-.401-.005-.644-.014a34.519 34.519 0 0 0-.602-.042v3.654c0 .075-.028.14-.084.196a.226.226 0 0 1-.182.084h-1.4a.269.269 0 0 1-.196-.084.269.269 0 0 1-.084-.196V1.088c0-.14.038-.238.112-.294a.686.686 0 0 1 .336-.126c.364-.056.784-.098 1.26-.126.476-.037.97-.056 1.484-.056.541 0 1.055.051 1.54.154.486.103.91.28 1.274.532.373.252.668.588.882 1.008.224.41.336.924.336 1.54v.126zm-1.932-.126c0-.588-.177-1.003-.532-1.246-.345-.252-.868-.378-1.568-.378-.075 0-.172.005-.294.014-.112 0-.229.005-.35.014a4.22 4.22 0 0 0-.35.014c-.102 0-.186.005-.252.014v3.332c.056 0 .14.005.252.014.122 0 .243.005.364.014.13 0 .252.005.364.014h.266c.756 0 1.293-.14 1.61-.42.327-.28.49-.7.49-1.26V3.72zm9.926 2.604c0 .868-.084 1.61-.252 2.226-.168.607-.41 1.101-.728 1.484-.317.373-.7.649-1.148.826a4.324 4.324 0 0 1-1.526.252c-.57 0-1.083-.084-1.54-.252a2.876 2.876 0 0 1-1.148-.826c-.308-.383-.546-.877-.714-1.484-.168-.616-.252-1.358-.252-2.226V5.288c0-.868.084-1.605.252-2.212.168-.616.406-1.115.714-1.498.317-.383.7-.658 1.148-.826a4.23 4.23 0 0 1 1.54-.266c.57 0 1.078.089 1.526.266.448.168.83.443 1.148.826.317.383.56.882.728 1.498.168.607.252 1.344.252 2.212v1.036zm-1.946-1.036c0-.635-.047-1.157-.14-1.568-.084-.42-.206-.751-.364-.994-.15-.243-.327-.41-.532-.504a1.481 1.481 0 0 0-.672-.154c-.243 0-.467.051-.672.154-.205.093-.387.261-.546.504-.15.243-.27.574-.364.994-.084.41-.126.933-.126 1.568v1.036c0 .635.042 1.157.126 1.568.093.41.215.737.364.98.159.243.34.415.546.518.205.093.43.14.672.14.242 0 .466-.047.672-.14a1.34 1.34 0 0 0 .532-.518c.159-.243.28-.57.364-.98.093-.41.14-.933.14-1.568V5.288zm10.428 2.926c0 .075-.028.14-.084.196a.269.269 0 0 1-.196.084h-1.036v2.226c0 .075-.023.14-.07.196a.226.226 0 0 1-.182.084h-1.442a.226.226 0 0 1-.182-.084.297.297 0 0 1-.07-.196V8.494h-4.2a.269.269 0 0 1-.196-.084.269.269 0 0 1-.084-.196V7.08a.71.71 0 0 1 .154-.448L36.778.85a.753.753 0 0 1 .154-.182.423.423 0 0 1 .252-.07h1.274c.075 0 .14.028.196.084a.269.269 0 0 1 .084.196v6.076h1.036c.075 0 .14.028.196.084a.269.269 0 0 1 .084.196v.98zm-3.248-4.816c0-.056-.014-.084-.042-.084-.028 0-.06.028-.098.084L34.216 6.8c-.028.028-.042.056-.042.084 0 .047.038.07.112.07h2.52V3.398z"/></defs></svg>