<svg width="48" height="36" viewBox="0 0 48 36" xmlns="http://www.w3.org/2000/svg" xmlns:xlink="http://www.w3.org/1999/xlink"><title>Icon</title><desc>Created using Figma</desc><use xlink:href="#a" transform="matrix(1.25 0 0 -1.25 10.79 22.06)" fill="#66CFDF"/><use xlink:href="#b" transform="matrix(1.25 0 0 -1.25 5.93 31.72)" fill="#66CFDF"/><use xlink:href="#c" transform="matrix(1.25 0 0 -1.25 0 35.93)" fill="#66CFDF"/><use xlink:href="#d" transform="matrix(1.25 0 0 -1.25 35.59 36)" fill="#66CFDF"/><use xlink:href="#e" transform="matrix(1.25 0 0 -1.25 9.54 2.24)" fill="#66CFDF"/><use xlink:href="#f" transform="matrix(1.25 0 0 -1.25 22.4 17.37)" fill="#66CFDF"/><use xlink:href="#g" transform="matrix(1.25 0 0 -1.25 24.89 22.4)" fill="#66CFDF"/><use xlink:href="#h" transform="matrix(1.25 0 0 -1.25 27.59 27.43)" fill="#66CFDF"/><use xlink:href="#i" transform="matrix(1.25 0 0 -1.25 18.71 31.72)" fill="#66CFDF"/><defs><path id="a" d="M3.834 6.214c-1.163 0-2.109-1.016-2.109-2.264 0-1.25.946-2.267 2.109-2.267 1.162 0 2.108 1.017 2.108 2.267 0 1.248-.946 2.264-2.108 2.264zm0-6.214C1.72 0 0 1.772 0 3.95c0 2.176 1.72 3.947 3.834 3.947s3.833-1.77 3.833-3.947C7.667 1.772 5.948 0 3.834 0z"/><path id="b" d="M12.506 0H2.12C1.333 0 .852.327.59.6c-.627.646-.593 1.548-.587 1.648.003.064.084 1.886.16 2.765.113 1.29 1.393 1.985 1.539 2.06l2.322 1.35a.874.874 0 0 0 1.183-.294.83.83 0 0 0-.3-1.153l-2.362-1.37c-.226-.122-.635-.434-.662-.736-.074-.844-.155-2.689-.157-2.707-.003-.1.03-.32.12-.41.057-.057.181-.07.274-.07h10.387a.852.852 0 0 0 .863-.841.852.852 0 0 0-.863-.842z"/><path id="c" d="M33.609 0h-.577a.852.852 0 0 0-.863.842c0 .465.386.841.863.841h.577c1.726 0 3.066 1.63 3.066 3.03v15.865H1.725V5.196c0-1.936 1.375-3.513 3.065-3.513h21.203a.852.852 0 0 0 .862-.841.852.852 0 0 0-.863-.842H4.79C2.15 0 0 2.331 0 5.196V23.49c0 2.867 2.149 5.2 4.79 5.2a.852.852 0 0 0 .863-.842.852.852 0 0 0-.863-.841c-1.69 0-3.065-1.578-3.065-3.518v-1.227h34.95v.747c0 2.317-1.29 3.998-3.066 3.998H11.693a.852.852 0 0 0-.862.841c0 .466.385.842.862.842H33.61c2.732 0 4.791-2.442 4.791-5.681V4.714C38.4 2.203 36.161 0 33.609 0z"/><path id="d" d="M0 .897c0 .495.412.896.919.896A.91.91 0 0 0 1.84.897.91.91 0 0 0 .919 0 .909.909 0 0 0 0 .897z"/><path id="e" d="M0 .897a.91.91 0 0 0 .919.896.91.91 0 0 0 .921-.896A.91.91 0 0 0 .919 0 .909.909 0 0 0 0 .897z"/><path id="f" d="M15.258 0H.863A.853.853 0 0 0 0 .842c0 .465.386.841.863.841h14.395a.852.852 0 0 0 .862-.841.853.853 0 0 0-.862-.842z"/><path id="g" d="M13.263 0H.863A.852.852 0 0 0 0 .842c0 .465.386.841.863.841h12.4a.852.852 0 0 0 .863-.841.853.853 0 0 0-.863-.842z"/><path id="h" d="M11.107 0H.863A.852.852 0 0 0 0 .842c0 .465.386.841.863.841h10.244a.852.852 0 0 0 .862-.841.853.853 0 0 0-.862-.842z"/><path id="i" d="M3.207 0h-.898a.852.852 0 0 0-.863.842c0 .464.386.841.863.841h.898c.094 0 .217.012.274.07.09.09.124.31.12.408 0 .02-.082 1.864-.157 2.707-.026.304-.435.616-.629.72L.421 6.974a.831.831 0 0 0-.3 1.154c.243.4.774.53 1.182.293l2.361-1.37c.107-.054 1.388-.748 1.5-2.04.077-.878.157-2.7.16-2.778.006-.087.041-.988-.586-1.635C4.474.326 3.994 0 3.207 0z"/></defs></svg>