<svg width="48" height="30" viewBox="0 0 48 30" xmlns="http://www.w3.org/2000/svg" xmlns:xlink="http://www.w3.org/1999/xlink"><title>Icon</title><desc>Created using Figma</desc><use xlink:href="#a" transform="matrix(1.25 0 0 -1.25 0 30)" fill="#66CFDF"/><use xlink:href="#a" transform="matrix(1.25 0 0 -1.25 17.537 30)" fill="#66CFDF"/><use xlink:href="#b" transform="matrix(1.25 0 0 -1.25 35.075 30)" fill="#66CFDF"/><use xlink:href="#c" transform="matrix(1.25 0 0 -1.25 22.902 19.22)" fill="#66CFDF"/><use xlink:href="#d" transform="matrix(1.25 0 0 -1.25 10.73 24.61)" fill="#66CFDF"/><use xlink:href="#d" transform="matrix(1.25 0 0 -1.25 28.267 24.61)" fill="#66CFDF"/><use xlink:href="#e" transform="matrix(1.25 0 0 -1.25 45.732 24.22)" fill="#66CFDF"/><use xlink:href="#f" transform="matrix(1.25 0 0 -1.25 17.536 12.91)" fill="#66CFDF"/><use xlink:href="#g" transform="matrix(1.25 0 0 -1.25 19.085 3.71)" fill="#66CFDF"/><defs><path id="a" d="M5.143 8.623a3.454 3.454 0 0 1-3.442-3.457 3.454 3.454 0 0 1 3.441-3.458 3.456 3.456 0 0 1 3.442 3.458c0 1.907-1.545 3.457-3.44 3.457zm0-8.623C2.306 0 0 2.318 0 5.166c0 2.848 2.308 5.166 5.143 5.166 2.834 0 5.141-2.318 5.141-5.166C10.284 2.32 7.977.001 5.142 0z"/><path id="b" d="M5.142 0C2.306 0 0 2.318 0 5.166c0 2.848 2.308 5.165 5.142 5.165 1.394 0 2.698-.55 3.673-1.551a.857.857 0 0 0-.012-1.208.847.847 0 0 0-1.202.013 3.41 3.41 0 0 1-2.459 1.038c-1.897 0-3.44-1.552-3.441-3.457 0-1.907 1.544-3.458 3.44-3.458a3.415 3.415 0 0 1 2.716 1.336.848.848 0 0 0 1.194.147.856.856 0 0 0 .147-1.198A5.107 5.107 0 0 0 5.142 0z"/><path id="c" d="M.85 0C.38 0 0 .382 0 .854V5.9c0 .472.38.855.85.855s.85-.383.85-.855V.854A.852.852 0 0 0 .85 0z"/><path id="d" d="M6.296 0H.85C.38 0 0 .382 0 .854s.38.854.85.854h5.446c.47 0 .85-.382.85-.854A.851.851 0 0 0 6.297 0z"/><path id="e" d="M1.187.045a.91.91 0 0 0-.56 1.732.906.906 0 0 0 1.144-.584.913.913 0 0 0-.584-1.148z"/><path id="f" d="M5.147 0a5.12 5.12 0 0 0-3.99 1.9A5.142 5.142 0 0 0 .034 5.74c.052.47.483.809.94.754a.854.854 0 0 0 .75-.945 3.446 3.446 0 0 1 .752-2.57 3.436 3.436 0 0 1 4.842-.496 3.472 3.472 0 0 1 .492 4.864 3.42 3.42 0 0 1-2.745 1.271h-.019a.854.854 0 1 0-.019 1.708 5.07 5.07 0 0 0 4.102-1.899c1.79-2.21 1.46-5.469-.737-7.269A5.107 5.107 0 0 0 5.147 0z"/><path id="g" d="M1.398 1.676a.912.912 0 0 0 .27-1.259A.903.903 0 0 0 .415.145a.916.916 0 0 0-.271 1.26.907.907 0 0 0 1.254.271z"/></defs></svg>