<svg width="38" height="38" viewBox="0 0 38 38" xmlns="http://www.w3.org/2000/svg" xmlns:xlink="http://www.w3.org/1999/xlink"><title>Icon</title><desc>Created using Figma</desc><use xlink:href="#a" transform="matrix(1.25 0 0 -1.25 0 38)" fill="#66CFDF"/><use xlink:href="#b" transform="matrix(1.25 0 0 -1.25 4.625 33.37)" fill="#66CFDF"/><use xlink:href="#c" transform="matrix(1.25 0 0 -1.25 7.409 5.18)" fill="#66CFDF"/><use xlink:href="#d" transform="matrix(1.25 0 0 -1.25 30.209 15.18)" fill="#66CFDF"/><use xlink:href="#e" transform="matrix(1.25 0 0 -1.25 10.894 26.3)" fill="#66CFDF"/><use xlink:href="#f" transform="matrix(1.25 0 0 -1.25 18.767 23.67)" fill="#66CFDF"/><defs><path id="a" d="M15.2 0C6.818 0 0 6.818 0 15.2a15.17 15.17 0 0 0 3.865 10.127.807.807 0 1 0 1.203-1.077 13.559 13.559 0 0 1-3.453-9.05C1.615 7.71 7.71 1.615 15.2 1.615c7.49 0 13.585 6.095 13.585 13.585 0 7.49-6.094 13.585-13.585 13.585a13.52 13.52 0 0 1-5.185-1.024.808.808 0 0 0-.617 1.493A15.131 15.131 0 0 0 15.2 30.4c8.381 0 15.2-6.819 15.2-15.2C30.4 6.818 23.581 0 15.2 0z"/><path id="b" d="M11.518 0c-1.02 0-2.047.137-3.058.415A11.42 11.42 0 0 0 1.511 5.81a11.427 11.427 0 0 0-1.097 8.73c1.676 6.11 8.011 9.722 14.126 8.046a11.413 11.413 0 0 0 6.006-3.992.807.807 0 1 0-1.272-.996 9.808 9.808 0 0 1-5.162 3.43c-5.252 1.44-10.7-1.663-12.14-6.915a9.805 9.805 0 0 1 .943-7.503 9.818 9.818 0 0 1 5.972-4.638 9.816 9.816 0 0 1 7.503.943 9.818 9.818 0 0 1 4.637 5.972 9.788 9.788 0 0 1 .28 3.833.807.807 0 1 0 1.602.2 11.405 11.405 0 0 0-.324-4.46 11.42 11.42 0 0 0-5.397-6.948A11.428 11.428 0 0 0 11.518 0z"/><path id="c" d="M1.723.86A.861.861 0 1 0 0 .863.861.861 0 0 0 1.723.861z"/><path id="d" d="M1.723.86a.86.86 0 1 0-1.721 0 .86.86 0 0 0 1.72 0z"/><path id="e" d="M3.913 4.724l-1.637-2.94 3.343.374c-.288.333-.604.74-.931 1.232-.326.492-.58.94-.775 1.334zM.807 0a.808.808 0 0 0-.705 1.2l3.256 5.851a.807.807 0 1 0 1.505-.277c0-.002.172-.99 1.17-2.489.998-1.5 1.842-2.04 1.85-2.045a.812.812 0 0 0 .362-.865.805.805 0 0 0-.693-.626L.898.005A.86.86 0 0 0 .808 0z"/><path id="f" d="M2.572 5.448c.251-.362.522-.8.794-1.324.273-.524.477-.996.63-1.41l1.94 2.749-3.364-.015zM3.637 0a.807.807 0 0 0-.807.778c0 .002-.064 1.003-.896 2.6C1.1 4.976.319 5.602.31 5.608a.812.812 0 0 0-.268.9.807.807 0 0 0 .759.547l6.694.03H7.5a.806.806 0 0 0 .66-1.275L4.297.342A.806.806 0 0 0 3.637 0z"/></defs></svg>